<?xml version="1.0" encoding="UTF-8"?>
<svg version="1.1" xmlns="http://www.w3.org/2000/svg" width="512" height="512">
<path d="M0 0 C1.15442345 -0.00855011 1.15442345 -0.00855011 2.33216858 -0.01727295 C3.95491185 -0.02666132 5.57767366 -0.03323218 7.20043945 -0.03710938 C9.62291995 -0.04672716 12.04451784 -0.07777254 14.46679688 -0.109375 C34.3131737 -0.24557501 52.27968727 2.37205736 67.09765625 16.640625 C79.96979955 29.77358223 84.01846658 44.72948281 84.05859375 62.80078125 C84.06857895 64.41139687 84.06857895 64.41139687 84.07876587 66.05455017 C84.08882712 68.31426296 84.09358493 70.57400507 84.09326172 72.83374023 C84.09761419 76.2327769 84.13394904 79.63049078 84.171875 83.02929688 C84.25442451 98.69431909 83.73633265 114.75392633 75.84765625 128.765625 C75.50105957 129.41708496 75.15446289 130.06854492 74.79736328 130.73974609 C70.61852129 138.47127809 66.18778933 145.19978714 59.72265625 151.203125 C62.7795496 159.56165545 67.47230769 166.52842524 75.5234375 170.62109375 C77.68032968 171.57579729 79.85177891 172.4981531 82.03515625 173.390625 C83.7524292 174.14049683 83.7524292 174.14049683 85.50439453 174.90551758 C90.71053694 177.1638882 95.9606605 179.30732128 101.2265625 181.421875 C127.20180283 191.88158396 127.20180283 191.88158396 132.72265625 204.203125 C132.78229783 207.8412615 132.68720305 209.96838889 130.42578125 212.86328125 C127.69417645 215.01222722 125.33599315 214.86055878 121.95703125 214.7421875 C118.73929597 213.96588074 117.61264568 211.81130972 115.70703125 209.25 C105.57439667 198.79822733 85.78239659 193.85193135 72.72265625 188.203125 C72.70807373 189.32807373 72.69349121 190.45302246 72.6784668 191.61206055 C72.62037871 195.79629887 72.54314661 199.98000497 72.46020508 204.16381836 C72.42700511 205.97264958 72.39895784 207.78158318 72.3762207 209.59057617 C72.34258367 212.19494133 72.2902643 214.7983726 72.234375 217.40234375 C72.22798508 218.20774094 72.22159515 219.01313812 72.2150116 219.84294128 C72.0649328 225.60835707 70.90106253 229.02471872 66.72265625 233.203125 C63.41015625 233.640625 63.41015625 233.640625 59.72265625 233.203125 C57.03515625 230.953125 57.03515625 230.953125 54.72265625 228.203125 C53.39779596 226.86137213 52.06585007 225.52652438 50.72265625 224.203125 C50.02140625 224.84378906 49.32015625 225.48445312 48.59765625 226.14453125 C38.47850608 235.37000648 28.12780726 244.30321353 17.72265625 253.203125 C28.06477502 250.68670729 38.30994918 247.95506918 48.51953125 244.9375 C49.88681162 244.53608982 51.25418474 244.13499544 52.62164307 243.73419189 C56.18881748 242.68789681 59.75492452 241.63801378 63.32073975 240.58709717 C66.85916127 239.5446493 70.39830496 238.50466192 73.9375 237.46484375 C74.63265465 237.26055 75.3278093 237.05625626 76.04402924 236.84577179 C79.52515082 235.8230896 83.00678411 234.80219733 86.48937988 233.7845459 C87.17124107 233.58528755 87.85310226 233.38602921 88.55562592 233.18073273 C89.9214017 232.78166738 91.2872106 232.38271538 92.65305328 231.98387909 C96.69134897 230.8029973 100.72482092 229.60708724 104.75510788 228.39916611 C106.69081475 227.82064698 108.62803321 227.24754485 110.565979 226.67657471 C112.93611346 225.97771062 115.30365755 225.26997162 117.66790771 224.55145264 C123.88503301 222.73426963 129.23815705 221.54025068 135.72265625 222.203125 C138.15582196 224.13823044 138.71312692 225.17453701 139.72265625 228.203125 C139.9545657 231.99084942 139.90782573 235.78404377 139.91015625 239.578125 C139.92240234 240.6196875 139.93464844 241.66125 139.94726562 242.734375 C139.94919922 243.74242187 139.95113281 244.75046875 139.953125 245.7890625 C139.95723389 246.7073584 139.96134277 247.6256543 139.96557617 248.57177734 C139.70125405 251.4349571 138.91040879 253.59813096 137.72265625 256.203125 C138.38265625 256.265 139.04265625 256.326875 139.72265625 256.390625 C147.37110049 258.46207865 153.94922891 264.00174931 158.72265625 270.203125 C165.05356926 281.98739873 166.44932429 294.37329388 162.72265625 307.203125 C158.46380486 318.33270149 151.29902484 324.92460832 140.72265625 330.203125 C140.06265625 330.203125 139.40265625 330.203125 138.72265625 330.203125 C139.05265625 330.863125 139.38265625 331.523125 139.72265625 332.203125 C140.00842171 337.99837623 140.03645386 343.79480476 140.07275391 349.59643555 C140.08931069 351.53731275 140.11659713 353.47812906 140.15478516 355.41870117 C140.20958965 358.21825765 140.23143289 361.01638538 140.24609375 363.81640625 C140.26876312 364.68115067 140.2914325 365.54589508 140.31478882 366.43684387 C140.30098256 370.38014128 140.0520784 372.65281325 137.99829102 376.08374023 C132.95029181 379.34987134 127.62662126 380.27760592 121.7890625 381.5 C120.46095917 381.79193198 119.13321308 382.08549326 117.80580139 382.3805542 C114.20328368 383.17643457 110.59614972 383.94918828 106.98777008 384.71798706 C103.16839542 385.53601374 99.35379697 386.37575517 95.53857422 387.21289062 C86.73614832 389.13970124 77.92725432 391.03581026 69.11688232 392.92590332 C62.56039266 394.33294806 56.00484026 395.7443506 49.44937325 397.15615082 C47.20262339 397.63954898 44.95557928 398.12155778 42.70848083 398.60333252 C41.3107629 398.90376583 39.91306245 399.20428048 38.51538086 399.50488281 C37.84787371 399.64786206 37.18036655 399.79084131 36.49263191 399.93815327 C32.21390566 400.86083296 27.96035013 401.86662521 23.70654297 402.8972168 C10.25326697 406.01214878 -2.17540117 404.06820152 -15.37033081 400.78567505 C-20.05360864 399.62131447 -24.75214947 398.52121761 -29.44921875 397.4140625 C-30.49230698 397.16670853 -31.5353952 396.91935455 -32.61009216 396.664505 C-42.2254357 394.40412169 -51.87846512 392.34164309 -61.54296875 390.3046875 C-63.13764466 389.96782395 -64.73231527 389.6309353 -66.32698059 389.29402161 C-72.71387431 387.94599676 -79.10124303 386.6004033 -85.49203491 385.27096558 C-89.29044639 384.48066366 -93.08695728 383.68176482 -96.88233185 382.87701035 C-98.29574011 382.57914044 -99.70986295 382.28463883 -101.12471771 381.99371719 C-103.07897328 381.59163604 -105.0306484 381.17707409 -106.98217773 380.76196289 C-108.08190414 380.53231339 -109.18163055 380.30266388 -110.31468201 380.0660553 C-114.93956089 378.71897336 -117.59258283 377.23026638 -120.27734375 373.203125 C-120.51785278 371.26806641 -120.51785278 371.26806641 -120.50439453 369.0546875 C-120.50424347 368.22372559 -120.50409241 367.39276367 -120.50393677 366.53662109 C-120.4936142 365.64281738 -120.48329163 364.74901367 -120.47265625 363.828125 C-120.46982635 362.90725098 -120.46699646 361.98637695 -120.46408081 361.03759766 C-120.45288314 358.09264154 -120.42779675 355.14798908 -120.40234375 352.203125 C-120.39231187 350.21875443 -120.38318638 348.23437905 -120.375 346.25 C-120.35532596 341.87930704 -120.32689815 337.50877056 -120.290802 333.13818359 C-120.27936119 331.49319773 -120.27734375 329.84815065 -120.27734375 328.203125 C-122.53593429 326.14599788 -122.53593429 326.14599788 -125.40234375 324.078125 C-132.30733329 318.61278579 -137.06958744 312.83614518 -139.27734375 304.203125 C-139.60858087 300.59554467 -139.64747345 297.01169273 -139.65234375 293.390625 C-139.67683594 292.44380859 -139.70132813 291.49699219 -139.7265625 290.52148438 C-139.76791754 280.50667269 -136.05886718 272.53369956 -129.27734375 265.203125 C-121.38570877 258.203125 -121.38570877 258.203125 -118.27734375 258.203125 C-119.26734375 256.718125 -119.26734375 256.718125 -120.27734375 255.203125 C-120.75036517 250.59295489 -120.64770733 245.95990604 -120.65234375 241.328125 C-120.67683594 240.04808594 -120.70132813 238.76804687 -120.7265625 237.44921875 C-120.73042969 236.21558594 -120.73429687 234.98195313 -120.73828125 233.7109375 C-120.74649902 232.58316895 -120.7547168 231.45540039 -120.76318359 230.29345703 C-120.14171349 226.34040747 -119.37640322 224.76347727 -116.27734375 222.203125 C-108.09263139 221.01099481 -100.53173103 223.82153249 -92.74609375 226.15625 C-91.32257386 226.57348149 -89.8987378 226.98963555 -88.47460938 227.40478516 C-85.46198381 228.28547142 -82.45170745 229.17362624 -79.44311523 230.06799316 C-74.7618637 231.45958298 -70.07566715 232.83395645 -65.38867188 234.20605469 C-56.34685854 236.85588882 -47.31120013 239.52630616 -38.27734375 242.203125 C-36.43366211 242.74936523 -36.43366211 242.74936523 -34.55273438 243.30664062 C-32.31934855 243.96843144 -30.08598912 244.63031136 -27.85266113 245.29229736 C-24.02028063 246.42734706 -20.18680554 247.55867285 -16.35327148 248.68981934 C-13.83188757 249.43696243 -11.31329409 250.19297269 -8.79492188 250.95019531 C-7.29955677 251.39414168 -5.80411933 251.83784451 -4.30859375 252.28125 C-3.05626953 252.65668945 -1.80394531 253.03212891 -0.51367188 253.41894531 C2.39295182 254.12323584 4.753284 254.37622111 7.72265625 254.203125 C7.26117188 253.80222656 6.7996875 253.40132812 6.32421875 252.98828125 C-0.34386949 247.17676561 -6.93986723 241.28654519 -13.44140625 235.2890625 C-14.24239746 234.55091309 -14.24239746 234.55091309 -15.05957031 233.79785156 C-16.09697215 232.84059235 -17.13285949 231.88168839 -18.16699219 230.92089844 C-20.76889926 228.5192732 -23.39702178 226.26439807 -26.27734375 224.203125 C-29.12279062 225.36238113 -30.52142006 226.4664705 -32.65234375 228.765625 C-35.69252454 231.58865002 -37.15777817 232.203125 -41.27734375 232.203125 C-44.15606952 230.8291877 -46.02723812 229.45323063 -48.27734375 227.203125 C-48.45244761 224.55020743 -48.50889858 222.00326326 -48.47265625 219.3515625 C-48.46982635 218.57753082 -48.46699646 217.80349915 -48.46408081 217.00601196 C-48.45287129 214.52989343 -48.42776578 212.0541345 -48.40234375 209.578125 C-48.39231493 207.90104688 -48.38318891 206.22396311 -48.375 204.546875 C-48.35292949 200.43215277 -48.31839477 196.31769989 -48.27734375 192.203125 C-52.10052463 193.83806064 -55.92334332 195.47383956 -59.74584961 197.11035156 C-61.04230338 197.66526271 -62.33885048 198.21995589 -63.63549805 198.77441406 C-82.22122535 205.37694243 -82.22122535 205.37694243 -97.46484375 216.953125 C-99.50136099 219.52971311 -100.11990944 220.14529199 -103.33984375 221.328125 C-106.84165572 221.17911172 -108.52123111 220.32926904 -111.27734375 218.203125 C-112.91456647 214.92867956 -112.7406813 212.85190824 -112.27734375 209.203125 C-103.91995193 194.11266202 -84.99224102 188.52867167 -69.93457031 182.47216797 C-67.38524936 181.44624571 -64.83896988 180.41303603 -62.29296875 179.37890625 C-60.66553777 178.72092564 -59.03793956 178.06335849 -57.41015625 177.40625 C-56.27418503 176.9453598 -56.27418503 176.9453598 -55.11526489 176.47515869 C-49.64445342 174.28048581 -49.64445342 174.28048581 -47.11056519 173.746521 C-46.50560211 173.56720032 -45.90063904 173.38787964 -45.27734375 173.203125 C-44.15605363 171.0094469 -44.15605363 171.0094469 -43.27734375 168.203125 C-42.0866945 165.75448209 -40.88274955 163.31892589 -39.65234375 160.890625 C-39.3275 160.24544922 -39.00265625 159.60027344 -38.66796875 158.93554688 C-37.87292419 157.35714959 -37.07538741 155.78000806 -36.27734375 154.203125 C-36.96957031 153.59791016 -36.96957031 153.59791016 -37.67578125 152.98046875 C-53.99129069 137.79350245 -62.37292293 116.94012368 -63.3850708 94.85221863 C-63.44058755 92.3945873 -63.46808954 89.93869592 -63.48046875 87.48046875 C-63.48616882 86.57672012 -63.4918689 85.6729715 -63.4977417 84.74183655 C-63.5071305 82.83840075 -63.51370111 80.93494915 -63.51757812 79.03149414 C-63.52723645 76.17238741 -63.55829958 73.31401541 -63.58984375 70.45507812 C-63.70446062 50.77939565 -61.82194243 33.30770275 -47.5625 18.453125 C-46.80839844 17.710625 -46.05429687 16.968125 -45.27734375 16.203125 C-44.28541016 15.213125 -44.28541016 15.213125 -43.2734375 14.203125 C-31.40911524 3.0818209 -15.78135651 0.09384068 0 0 Z M-37.01953125 31.11328125 C-43.02339807 38.62558227 -46.42796145 46.78579595 -46.33984375 56.390625 C-46.33082031 57.66292969 -46.32179688 58.93523437 -46.3125 60.24609375 C-46.30089844 61.22191406 -46.28929687 62.19773438 -46.27734375 63.203125 C-42.80148958 60.35924431 -39.48761856 57.45326998 -36.3515625 54.23828125 C-35.5766748 53.44502441 -35.5766748 53.44502441 -34.78613281 52.63574219 C-33.75643308 51.57404433 -32.73335796 50.50587194 -31.71777344 49.43066406 C-26.20952041 43.754721 -20.92993353 41.69926572 -13.07421875 41.2109375 C-6.41265419 41.19232978 -1.80445764 42.72384653 3.78515625 46.328125 C7.47516624 48.63082769 10.24391646 50.2012796 14.65234375 49.87109375 C18.38956602 48.66531072 21.31062794 46.23150742 24.421875 43.89453125 C30.29295363 39.57844119 36.68483831 39.49067831 43.72265625 40.203125 C52.42811849 41.85486123 57.54786733 47.49714267 63.3515625 53.71875 C64.13402344 54.53859375 64.91648437 55.3584375 65.72265625 56.203125 C66.05265625 56.203125 66.38265625 56.203125 66.72265625 56.203125 C67.54981884 47.60063409 64.72849081 40.41602698 59.73828125 33.421875 C52.38882737 24.76932646 42.68041438 18.25723006 31.19372559 16.90553284 C28.46516142 16.77720119 25.75111069 16.73495978 23.01953125 16.734375 C22.01988342 16.72676147 21.0202356 16.71914795 19.99029541 16.71130371 C17.88597087 16.70055585 15.78159322 16.69762782 13.67724609 16.70214844 C10.49484041 16.70311824 7.31486961 16.66148528 4.1328125 16.6171875 C-12.12876471 16.52117448 -25.49123116 18.47350829 -37.01953125 31.11328125 Z M25.72265625 62.203125 C17.95670482 65.77937826 10.10177931 65.96585995 2.05859375 63.23828125 C-0.92293174 61.91703668 -3.45425282 60.222014 -6 58.19140625 C-9.89523542 56.50102107 -13.1400901 56.09212468 -17.27734375 57.203125 C-21.13246809 59.92103114 -24.21223174 63.24595642 -27.40234375 66.703125 C-28.25699219 67.59 -29.11164063 68.476875 -29.9921875 69.390625 C-34.42584981 74.02179301 -38.71654775 78.76724935 -42.89794922 83.62695312 C-43.97807002 84.86115841 -45.11761886 86.04340011 -46.27734375 87.203125 C-47.52357285 99.85963349 -45.12603757 110.86703474 -39.65234375 122.265625 C-39.3584375 122.89009521 -39.06453125 123.51456543 -38.76171875 124.15795898 C-33.3695994 134.77917374 -24.50502834 143.34877068 -16.15625 151.69482422 C-14.63598354 153.21953301 -13.13253549 154.75968293 -11.62890625 156.30078125 C-10.64550999 157.29003641 -9.66116873 158.27835326 -8.67578125 159.265625 C-7.80614746 160.14347656 -6.93651367 161.02132812 -6.04052734 161.92578125 C-0.74057096 166.29386688 4.77104418 167.97494146 11.62817383 167.62817383 C22.86693121 166.08445181 30.81411479 158.01047928 38.35180664 150.24633789 C40.03306307 148.51777707 41.73952529 146.81755851 43.45117188 145.11914062 C58.51662263 129.97713069 66.31022156 113.5073483 67.72265625 92.203125 C67.90828125 90.80320312 67.90828125 90.80320312 68.09765625 89.375 C68.48167985 85.07873601 68.56652812 82.35760159 65.9609375 78.79296875 C63.63079861 76.48656642 61.19556529 74.35451617 58.72265625 72.203125 C57.53029435 70.87152763 56.36165556 69.51814416 55.22265625 68.140625 C45.35414629 56.71151347 38.75235555 51.57363347 25.72265625 62.203125 Z M34.84765625 174.453125 C26.10657567 181.28555191 15.94530112 183.84894283 4.9375 182.984375 C-3.46205512 181.75574809 -10.60772488 178.41423952 -17.27734375 173.203125 C-18.32386114 181.74740666 -18.32386114 181.74740666 -15.77734375 189.66796875 C-13.71602131 191.70110905 -11.58706375 193.45888817 -9.27734375 195.203125 C-8.02023883 196.29919582 -6.77014905 197.40336648 -5.52734375 198.515625 C-4.8828125 199.06992187 -4.23828125 199.62421875 -3.57421875 200.1953125 C1.27660087 204.43565482 5.98532215 208.83688207 10.72265625 213.203125 C17.07573565 209.08144038 23.17320165 204.71415146 29.16015625 200.078125 C29.96130859 199.47097656 30.76246094 198.86382812 31.58789062 198.23828125 C32.35294922 197.64660156 33.11800781 197.05492187 33.90625 196.4453125 C34.59259521 195.9179248 35.27894043 195.39053711 35.98608398 194.84716797 C38.4582953 192.5066828 39.58373972 190.49191193 39.94970703 187.09667969 C39.93399658 185.99694824 39.93399658 185.99694824 39.91796875 184.875 C39.90830078 183.67617188 39.90830078 183.67617188 39.8984375 182.453125 C39.88167969 181.628125 39.86492187 180.803125 39.84765625 179.953125 C39.83863281 179.11265625 39.82960938 178.2721875 39.8203125 177.40625 C39.79681442 175.33841896 39.76094533 173.27073505 39.72265625 171.203125 C37.81234105 171.203125 36.22745705 173.2844681 34.84765625 174.453125 Z M-32.27734375 194.203125 C-32.27734375 197.503125 -32.27734375 200.803125 -32.27734375 204.203125 C-29.63734375 203.873125 -26.99734375 203.543125 -24.27734375 203.203125 C-25.23464291 202.07724486 -26.1932227 200.9524535 -27.15234375 199.828125 C-27.68601562 199.20164062 -28.2196875 198.57515625 -28.76953125 197.9296875 C-29.89166382 196.64475849 -31.0710635 195.40940525 -32.27734375 194.203125 Z M53.72265625 197.203125 C53.06265625 198.853125 52.40265625 200.503125 51.72265625 202.203125 C52.71265625 202.203125 53.70265625 202.203125 54.72265625 202.203125 C54.72265625 200.553125 54.72265625 198.903125 54.72265625 197.203125 C54.39265625 197.203125 54.06265625 197.203125 53.72265625 197.203125 Z M20.72265625 226.203125 C20.39265625 226.863125 20.06265625 227.523125 19.72265625 228.203125 C20.71265625 227.873125 21.70265625 227.543125 22.72265625 227.203125 C22.06265625 226.873125 21.40265625 226.543125 20.72265625 226.203125 Z M13.72265625 231.203125 C10.53515625 231.328125 10.53515625 231.328125 7.72265625 231.203125 C9.37265625 232.853125 11.02265625 234.503125 12.72265625 236.203125 C14.70265625 233.893125 16.68265625 231.583125 18.72265625 229.203125 C16.39908114 229.01822493 16.39908114 229.01822493 13.72265625 231.203125 Z M-104.27734375 241.203125 C-104.27734375 245.493125 -104.27734375 249.783125 -104.27734375 254.203125 C-102.32441406 254.25919922 -102.32441406 254.25919922 -100.33203125 254.31640625 C-98.60544118 254.38209174 -96.87887994 254.44853818 -95.15234375 254.515625 C-93.8684375 254.54946289 -93.8684375 254.54946289 -92.55859375 254.58398438 C-86.60142711 254.83601835 -82.19337056 255.78986144 -77.46484375 259.703125 C-71.64002663 267.06078873 -74.09103426 283.04629775 -74.09204102 292.21582031 C-74.0898327 294.46437945 -74.07152861 296.71246307 -74.05273438 298.9609375 C-73.97293864 318.6463289 -73.97293864 318.6463289 -80.53515625 326.54296875 C-87.00765142 332.71070518 -95.66580445 331.58801505 -104.27734375 332.203125 C-104.27734375 342.763125 -104.27734375 353.323125 -104.27734375 364.203125 C-92.85608905 366.68369666 -81.43427702 369.1616596 -70.01145458 371.63500214 C-64.70771831 372.78351086 -59.40423739 373.93317252 -54.10131836 375.08544922 C-48.98612571 376.19689061 -43.87029095 377.30532935 -38.75399208 378.41166687 C-36.7996828 378.83481913 -34.84560951 379.25906281 -32.89177513 379.68440247 C-30.16047705 380.27879901 -27.42837452 380.86935052 -24.69604492 381.45898438 C-23.88396576 381.63664841 -23.0718866 381.81431244 -22.23519897 381.99736023 C-19.19141787 382.65090028 -16.40040122 383.203125 -13.27734375 383.203125 C-13.27734375 344.923125 -13.27734375 306.643125 -13.27734375 267.203125 C-25.20328863 263.43703714 -37.11359645 259.72269845 -49.12109375 256.2421875 C-50.63377093 255.80243559 -52.14642504 255.3626043 -53.65905762 254.92269897 C-56.78088204 254.01543153 -59.90320711 253.10991279 -63.02587891 252.20556641 C-67.02716848 251.04648111 -71.02673743 249.88156949 -75.02593231 248.71528053 C-78.1271457 247.81178415 -81.22940722 246.91193109 -84.33198547 246.013134 C-85.80915814 245.58460128 -87.28595946 245.15478631 -88.76237488 244.72365189 C-90.80860036 244.12657196 -92.85622707 243.53456515 -94.90429688 242.94384766 C-96.64700867 242.43804672 -96.64700867 242.43804672 -98.42492676 241.92202759 C-101.27191291 241.08092981 -101.27191291 241.08092981 -104.27734375 241.203125 Z M112.41162109 243.48217773 C111.56422867 243.72441071 110.71683624 243.96664368 109.84376526 244.21621704 C107.03922017 245.01908482 104.23638257 245.82774302 101.43359375 246.63671875 C99.48978826 247.19508241 97.5459091 247.75318965 95.60195923 248.31105042 C91.52752161 249.48126879 87.45390636 250.65429654 83.38085938 251.8293457 C78.14851315 253.33864697 72.9143247 254.84144003 67.67952538 256.34220791 C63.66582578 257.49357991 59.65304771 258.64813596 55.64055252 259.80369759 C53.71021936 260.35924475 51.77961313 260.91384397 49.84873581 261.46749687 C47.1565223 262.2400209 44.46555959 263.01675346 41.77490234 263.79467773 C40.9696965 264.02485092 40.16449066 264.25502411 39.33488464 264.49217224 C35.74070915 265.30171348 35.74070915 265.30171348 32.72265625 267.203125 C32.62690316 268.70863674 32.60077438 270.2186353 32.60240173 271.72718811 C32.60102707 272.70460464 32.5996524 273.68202118 32.59823608 274.6890564 C32.60183136 275.77014679 32.60542664 276.85123718 32.60913086 277.96508789 C32.60898483 279.0966481 32.60883881 280.22820831 32.60868835 281.39405823 C32.60938806 285.15465171 32.61718314 288.91519637 32.625 292.67578125 C32.62686398 295.27510043 32.62828797 297.87441997 32.62928772 300.47373962 C32.63272284 306.62901077 32.64061369 312.7842616 32.65063721 318.93952507 C32.66179931 325.94545846 32.66730904 332.95139267 32.67233264 339.95733273 C32.68279633 354.37260633 32.70039517 368.78786504 32.72265625 383.203125 C46.69846044 380.42711113 60.66625086 377.6252583 74.6015625 374.65234375 C76.0455402 374.34547643 77.48954627 374.0387426 78.93357849 373.73213196 C82.63411935 372.94604182 86.33428679 372.15820894 90.03436279 371.36993408 C94.52752706 370.41310953 99.02118127 369.45858857 103.51474762 368.50365448 C110.25108173 367.07185121 116.98681064 365.6372333 123.72265625 364.203125 C123.72265625 353.643125 123.72265625 343.083125 123.72265625 332.203125 C119.43265625 331.543125 115.14265625 330.883125 110.72265625 330.203125 C105.40758117 327.49896399 101.63249479 323.93264063 99.72265625 318.203125 C99.61513571 316.47132529 99.56393065 314.73577043 99.5456543 313.00073242 C99.52640144 311.40844063 99.52640144 311.40844063 99.50675964 309.78398132 C99.49937271 308.63710342 99.49198578 307.49022552 99.484375 306.30859375 C99.47630325 305.12848221 99.46823151 303.94837067 99.45991516 302.73249817 C99.44607711 300.23338286 99.43535371 297.73424867 99.42749023 295.23510742 C99.41027129 291.41613941 99.36638013 287.59803561 99.32226562 283.77929688 C99.3121392 281.35156887 99.30362294 278.9238335 99.296875 276.49609375 C99.27936691 275.35528854 99.26185883 274.21448334 99.24382019 273.03910828 C99.26086874 266.79801786 99.43188992 262.89470134 103.72265625 258.203125 C108.17989236 255.24215653 112.36052989 254.69324072 117.59765625 254.515625 C118.63019531 254.46438477 118.63019531 254.46438477 119.68359375 254.41210938 C121.36274238 254.33048409 123.04266793 254.2651093 124.72265625 254.203125 C124.39265625 249.913125 124.06265625 245.623125 123.72265625 241.203125 C119.73439671 241.203125 116.2101081 242.38127185 112.41162109 243.48217773 Z M2.72265625 271.203125 C2.72265625 309.483125 2.72265625 347.763125 2.72265625 387.203125 C11.65806204 388.78524302 11.65806204 388.78524302 15.72265625 387.203125 C15.72265625 348.923125 15.72265625 310.643125 15.72265625 271.203125 C11.43265625 271.203125 7.14265625 271.203125 2.72265625 271.203125 Z M-116.27734375 275.203125 C-117.31711125 276.61212812 -118.30922419 278.05646402 -119.27734375 279.515625 C-119.81359375 280.31613281 -120.34984375 281.11664063 -120.90234375 281.94140625 C-124.28101253 287.49893246 -124.11302489 294.28792597 -122.78125 300.52734375 C-121.2269294 305.13761672 -119.02173353 308.0066947 -115.27734375 311.203125 C-114.63796875 311.780625 -113.99859375 312.358125 -113.33984375 312.953125 C-110.70476432 314.55014284 -108.31329215 314.85813086 -105.27734375 315.203125 C-105.50421875 313.965625 -105.73109375 312.728125 -105.96484375 311.453125 C-106.46552041 308.72216142 -106.44091058 307.53988023 -105.21484375 305.015625 C-102.498598 302.47462092 -100.24485722 302.38738403 -96.58984375 301.953125 C-94.82060547 301.72882813 -94.82060547 301.72882813 -93.015625 301.5 C-92.11199219 301.40203125 -91.20835937 301.3040625 -90.27734375 301.203125 C-90.27734375 300.543125 -90.27734375 299.883125 -90.27734375 299.203125 C-91.46972656 299.14253906 -92.66210938 299.08195312 -93.890625 299.01953125 C-95.457043 298.93511351 -97.02344863 298.85046613 -98.58984375 298.765625 C-99.76836914 298.70665039 -99.76836914 298.70665039 -100.97070312 298.64648438 C-101.72802734 298.60458984 -102.48535156 298.56269531 -103.265625 298.51953125 C-103.96212158 298.48287354 -104.65861816 298.44621582 -105.3762207 298.40844727 C-107.27734375 298.203125 -107.27734375 298.203125 -110.27734375 297.203125 C-111.61971663 288.25397246 -111.61971663 288.25397246 -110.27734375 285.203125 C-109.61734375 284.873125 -108.95734375 284.543125 -108.27734375 284.203125 C-109.06109375 283.831875 -109.84484375 283.460625 -110.65234375 283.078125 C-113.88363204 280.77006194 -114.35240587 278.98696179 -115.27734375 275.203125 C-115.60734375 275.203125 -115.93734375 275.203125 -116.27734375 275.203125 Z M139.72265625 275.203125 C139.31015625 276.29625 138.89765625 277.389375 138.47265625 278.515625 C137.11980034 281.71328442 135.78209781 283.40965926 132.72265625 285.203125 C133.71265625 286.688125 133.71265625 286.688125 134.72265625 288.203125 C135.16391495 291.65965148 135.24443038 293.4610162 133.21484375 296.34765625 C129.79330978 298.89503656 126.58574979 298.87318855 122.47265625 298.953125 C121.72757812 298.98277344 120.9825 299.01242187 120.21484375 299.04296875 C118.38468953 299.1133593 116.55366856 299.16054332 114.72265625 299.203125 C114.72265625 299.863125 114.72265625 300.523125 114.72265625 301.203125 C116.07810547 301.36748047 116.07810547 301.36748047 117.4609375 301.53515625 C118.64042969 301.69371094 119.81992187 301.85226562 121.03515625 302.015625 C122.20691406 302.16644531 123.37867188 302.31726563 124.5859375 302.47265625 C129.003358 303.50137061 129.003358 303.50137061 130.72265625 306.203125 C131.015625 308.46484375 131.015625 308.46484375 130.91015625 310.890625 C130.88308594 311.69886719 130.85601562 312.50710938 130.828125 313.33984375 C130.79332031 313.95472656 130.75851562 314.56960938 130.72265625 315.203125 C136.14274684 314.86436934 139.91521242 311.81979921 143.72265625 308.203125 C148.29552447 302.71313558 148.32051554 296.46393621 148.11328125 289.55859375 C147.454004 283.89540218 145.73172222 279.98896142 141.47265625 276.203125 C140.89515625 275.873125 140.31765625 275.543125 139.72265625 275.203125 Z " fill="#FFFFFF" transform="translate(340.27734375,92.796875)"/>
<path d="M0 0 C1.39919258 1.18023496 2.77353956 2.39039516 4.125 3.625 C4.95515625 4.37523438 5.7853125 5.12546875 6.640625 5.8984375 C21.62575485 20.12085116 29.95136271 38.78537674 30.52783203 59.3347168 C30.761187 80.6406826 24.72582624 99.73838671 10.125 115.625 C9.47660156 116.34171875 8.82820312 117.0584375 8.16015625 117.796875 C-4.81459731 131.46532825 -23.88329753 139.81882779 -42.65234375 140.828125 C-66.60926717 141.28590061 -86.07647972 133.9354645 -103.5 117.5 C-117.98886761 102.51437121 -125.64502634 83.22633137 -126.1875 62.375 C-125.28290457 40.02395448 -116.6037022 20.44779214 -100.875 4.625 C-72.79418784 -20.75943788 -30.28640926 -22.51520407 0 0 Z M-82.875 11.625 C-90.15238376 17.396355 -97.66029898 24.19559796 -101.875 32.625 C-101.875 33.615 -101.875 34.605 -101.875 35.625 C-94.50021354 39.97014445 -88.4911307 42.29242661 -79.8828125 42.421875 C-76.5883773 42.64435634 -73.98442447 43.54962264 -70.875 44.625 C-63.64281283 45.62817435 -57.18973529 44.2797229 -50.875 40.625 C-48.66282934 38.72104188 -47.47435165 37.13065091 -45.875 34.625 C-45.875 33.635 -45.875 32.645 -45.875 31.625 C-46.62265625 31.24988281 -47.3703125 30.87476562 -48.140625 30.48828125 C-54.50584657 27.18069884 -58.60294665 24.62814162 -62.1875 18.3125 C-63.14328965 14.57623138 -63.16705851 11.24568374 -61.875 7.625 C-60.03100272 5.50006131 -58.23080478 4.22895219 -55.875 2.625 C-64.25302398 -0.4053491 -76.02334957 7.09067204 -82.875 11.625 Z M-27.875 4.625 C-29.07038666 6.05282295 -30.26005772 7.48638165 -31.40234375 8.95703125 C-33.85373167 11.73353693 -36.80335412 13.57723608 -39.875 15.625 C-39.111875 16.3675 -38.34875 17.11 -37.5625 17.875 C-31.73225227 23.84083489 -30.38847227 28.17562963 -30.46875 36.484375 C-31.39273526 43.62749184 -36.47465205 49.00459386 -41.97265625 53.34765625 C-51.90865119 60.0192586 -63.21512519 61.57487771 -74.875 59.625 C-75.865 59.295 -76.855 58.965 -77.875 58.625 C-79.62239594 58.45336229 -81.37004712 58.28374638 -83.11914062 58.13037109 C-92.31163316 57.27318636 -99.61146384 54.73094453 -107.875 50.625 C-108.79688461 53.39065382 -108.99285222 55.00783702 -108.97265625 57.85546875 C-108.96943359 58.65791016 -108.96621094 59.46035156 -108.96289062 60.28710938 C-108.95451172 61.12048828 -108.94613281 61.95386719 -108.9375 62.8125 C-108.93298828 63.65748047 -108.92847656 64.50246094 -108.92382812 65.37304688 C-108.91205403 67.45706155 -108.8941189 69.54103977 -108.875 71.625 C-108.1951001 71.8108667 -107.5152002 71.9967334 -106.81469727 72.18823242 C-103.68552518 73.05102139 -100.56162461 73.93161723 -97.4375 74.8125 C-96.36822266 75.10447266 -95.29894531 75.39644531 -94.19726562 75.69726562 C-79.44954352 79.89157191 -66.97393596 88.28557606 -58.875 101.625 C-56.93511654 105.87477195 -55.36133486 110.19866212 -53.875 114.625 C-53.55402344 115.55957031 -53.23304688 116.49414062 -52.90234375 117.45703125 C-52.20828584 119.50692322 -51.53839602 121.56498078 -50.875 123.625 C-40.74125178 124.17942999 -32.40684177 123.31387662 -22.875 119.625 C-22.215 118.965 -21.555 118.305 -20.875 117.625 C-21.50728516 116.91923828 -21.50728516 116.91923828 -22.15234375 116.19921875 C-22.70019531 115.57660156 -23.24804688 114.95398438 -23.8125 114.3125 C-24.35777344 113.69761719 -24.90304688 113.08273438 -25.46484375 112.44921875 C-28.3666844 108.69531409 -28.26635927 104.62313615 -28.2265625 100.06640625 C-27.68546421 96.30877921 -25.83363062 94.84397296 -22.875 92.625 C-22.111875 92.026875 -21.34875 91.42875 -20.5625 90.8125 C-20.005625 90.420625 -19.44875 90.02875 -18.875 89.625 C-19.39449219 89.356875 -19.91398437 89.08875 -20.44921875 88.8125 C-25.88922051 85.75564134 -29.72256572 82.61824591 -31.875 76.625 C-32.85918809 70.63113318 -32.7725238 65.37028082 -29.625 60.0625 C-26.1117518 55.33576218 -23.02008097 53.21124717 -17.13671875 51.90625 C-12.0381319 51.27222884 -7.02208557 52.1518131 -2.0390625 53.25 C4.1955243 54.61648478 7.52671533 54.85956448 13.125 51.625 C9.57799386 34.84160509 1.89456327 22.08986809 -11.875 11.625 C-19.38437279 6.58457097 -19.38437279 6.58457097 -27.875 4.625 Z M-16.875 68.625 C-16.69930105 71.05493589 -16.69930105 71.05493589 -15.875 73.625 C-14.02229211 75.0544748 -14.02229211 75.0544748 -11.6875 76 C-6.37813878 78.66738243 -2.55028681 82.27442637 0.125 87.625 C0.22055417 89.08079587 0.25484691 90.5410796 0.25 92 C0.25386719 93.15628906 0.25386719 93.15628906 0.2578125 94.3359375 C0.12730425 96.58528564 -0.15430998 98.49100878 -0.875 100.625 C-2.625 101.75 -2.625 101.75 -4.875 102.625 C-5.7825 102.99625 -6.69 103.3675 -7.625 103.75 C-8.3675 104.03875 -9.11 104.3275 -9.875 104.625 C-9.215 105.945 -8.555 107.265 -7.875 108.625 C-0.05349609 105.12232651 3.74437069 97.92337047 7.4375 90.5625 C7.77491211 89.89009277 8.11232422 89.21768555 8.45996094 88.52490234 C11.45162272 82.33739559 13.46537369 76.60266068 13.125 69.625 C11.74828125 69.65980469 11.74828125 69.65980469 10.34375 69.6953125 C3.48783259 69.79613481 -2.30392276 69.50245064 -8.875 67.625 C-13.04125387 67.33255229 -13.04125387 67.33255229 -16.875 68.625 Z M-102.875 89.625 C-96.48784955 102.91284064 -85.53366158 113.81399624 -71.875 119.625 C-70.885 119.295 -69.895 118.965 -68.875 118.625 C-71.83647697 108.89147431 -76.85978044 101.3412909 -85.84375 96.25390625 C-94.0012937 91.94221499 -94.0012937 91.94221499 -102.875 89.625 Z " fill="#FFFFFF" transform="translate(194.875,62.375)"/>
<path d="M0 0 C1.03125 0.50789063 2.0625 1.01578125 3.125 1.5390625 C28.62257646 14.78363694 46.61062141 38.71659042 55.3125 65.75 C62.90333471 90.89249324 60.86421117 119.16359639 50 143 C49.04496685 144.64775053 48.0867816 146.29367936 47.125 147.9375 C41.76054775 158.48289859 46.96994756 173.70664204 48.99414062 184.99633789 C49.35161089 187.00519655 49.69595139 189.01599032 50.0390625 191.02734375 C50.24740723 192.20031006 50.45575195 193.37327637 50.67041016 194.58178711 C51.03670479 198.38066945 50.97373843 201.30148316 50 205 C47.89624023 207.44482422 47.89624023 207.44482422 45 209 C41.62133789 209.24658203 41.62133789 209.24658203 37.66015625 208.8828125 C36.5629702 208.7914653 36.5629702 208.7914653 35.44361877 208.69827271 C32.96011465 208.4862888 30.48066767 208.2428073 28 208 C26.14454631 207.83490327 24.28890658 207.67188671 22.43310547 207.51074219 C15.3940146 206.89272754 8.35739001 206.24803022 1.32299805 205.57861328 C-1.70198023 205.29210915 -4.72778862 205.01635882 -7.75390625 204.7421875 C-9.12126671 204.60790848 -9.12126671 204.60790848 -10.51625061 204.47091675 C-17.69882116 203.8324716 -24.01018514 204.55368462 -31.0625 206.0625 C-57.38694022 210.41117802 -85.3366697 205.12553665 -108 191 C-108.83144531 190.48566406 -109.66289063 189.97132813 -110.51953125 189.44140625 C-133.67353333 173.85497906 -148.84661686 150.7474326 -156 124 C-156.21527344 123.22914063 -156.43054688 122.45828125 -156.65234375 121.6640625 C-163.70746413 92.31064193 -155.88091058 61.72067205 -140.47265625 36.5 C-131.13388884 22.60831878 -118.03081317 9.47883526 -103 2 C-102.4009082 1.69562012 -101.80181641 1.39124023 -101.18457031 1.07763672 C-68.60478424 -15.36332179 -32.76791826 -16.29313896 0 0 Z M-110 27 C-110.58136719 27.43570313 -111.16273437 27.87140625 -111.76171875 28.3203125 C-126.11407729 39.49440982 -135.82046478 58.67550168 -140 76 C-140.25946411 76.960271 -140.25946411 76.960271 -140.52416992 77.93994141 C-146.42094868 101.27927047 -141.00469989 126.53051388 -129 147 C-126.02150576 151.64625335 -122.62600028 155.84648053 -119 160 C-117.84564453 161.32257813 -117.84564453 161.32257813 -116.66796875 162.671875 C-99.86221168 180.62031207 -76.23246617 189.979577 -51.87231445 191.09765625 C-45.58854866 191.21780212 -39.69829238 190.24301973 -33.54492188 189.06640625 C-20.3134371 186.74509313 -6.95737736 188.27786439 6.3125 189.5 C19.63206432 190.77859958 19.63206432 190.77859958 33 191 C32.84853516 190.04746338 32.69707031 189.09492676 32.54101562 188.11352539 C31.97496359 184.54184525 31.41806696 180.96878525 30.86376953 177.39526367 C30.62370925 175.85581669 30.38124622 174.31674223 30.13623047 172.77807617 C26.55823105 150.28049206 26.55823105 150.28049206 31.75 141.0625 C32.49045021 139.65478456 33.2287463 138.24593389 33.96484375 136.8359375 C34.3191748 136.16916992 34.67350586 135.50240234 35.03857422 134.81542969 C45.55424492 114.95902356 45.35909664 89.62809078 38.93359375 68.4921875 C34.71447063 56.93485355 28.93446349 46.39900231 21 37 C20.53078125 36.39800781 20.0615625 35.79601562 19.578125 35.17578125 C6.61897812 18.97684765 -16.67733715 7.6892369 -37 5 C-64.14181617 2.8299339 -88.82138547 9.42539444 -110 27 Z " fill="#FFFFFF" transform="translate(197,26)"/>
<path d="M0 0 C0.66469419 -0.00453111 1.32938839 -0.00906223 2.01422483 -0.01373065 C4.22198344 -0.02630255 6.42949309 -0.02475906 8.63728333 -0.02310181 C10.22786778 -0.02909123 11.81844933 -0.03589773 13.4090271 -0.04345703 C17.71454462 -0.06107356 22.01998259 -0.06581033 26.32553267 -0.0670886 C29.01598353 -0.06851224 31.70641427 -0.07278567 34.39686012 -0.07808304 C43.78365485 -0.09656282 53.17039288 -0.10475546 62.5572052 -0.10317993 C71.30798789 -0.10197629 80.05852483 -0.1231273 88.80924529 -0.15466726 C96.32617135 -0.1807954 103.84301689 -0.19154882 111.35998803 -0.19026911 C115.84817525 -0.18975883 120.33614353 -0.19547964 124.82428551 -0.21662521 C129.04085429 -0.23595157 133.2569938 -0.23617087 137.4735775 -0.22159195 C139.0215772 -0.21949635 140.56960341 -0.2242493 142.11755753 -0.23631287 C144.22918922 -0.25170547 146.33932915 -0.24249977 148.45092773 -0.22705078 C150.22372494 -0.22868508 150.22372494 -0.22868508 152.03233624 -0.2303524 C155.66059437 0.37113813 156.80833476 1.39951306 159.0349884 4.26742554 C159.9724884 6.70492554 159.9724884 6.70492554 160.0349884 9.26742554 C158.64941053 12.10456118 157.26497136 14.03744258 155.0349884 16.26742554 C152.38051605 16.52075863 152.38051605 16.52075863 148.93940735 16.52571106 C146.98804871 16.53595306 146.98804871 16.53595306 144.99726868 16.54640198 C143.54695102 16.54398226 142.09663363 16.54139795 140.64631653 16.53866577 C139.12531759 16.54305105 137.60432106 16.54835248 136.08332825 16.55450439 C132.80174286 16.56602581 129.52022223 16.57146542 126.23861694 16.57238579 C121.0436871 16.57432432 115.84889106 16.59236838 110.65400696 16.61314392 C97.74295219 16.66237485 84.83186077 16.69316355 71.92073059 16.71444702 C61.90164826 16.73099372 51.88267987 16.75389637 41.86367369 16.79746777 C36.70649253 16.81918312 31.54952811 16.8273075 26.39230442 16.82507503 C23.17084085 16.82675006 19.94951678 16.84085034 16.72810364 16.85828781 C15.24230979 16.86385504 13.75648661 16.86440255 12.27069092 16.8593502 C1.78605598 16.82745777 -8.46538194 16.94112397 -16.4962616 24.51742554 C-21.3881269 30.346031 -23.31281773 37.00710721 -23.25798035 44.49789429 C-22.76806412 49.12923572 -20.9670268 53.10264939 -18.9650116 57.26742554 C-18.67368347 57.98156616 -18.38235535 58.69570679 -18.0821991 59.43148804 C-16.66345483 61.76299086 -15.43383221 62.14174887 -12.9650116 63.26742554 C-12.22049901 63.6160968 -11.47598642 63.96476807 -10.70891285 64.32400513 C-2.65614851 67.64367603 4.81169685 67.787084 13.41706848 67.65805054 C14.93602205 67.65035767 16.4549859 67.64451011 17.97395325 67.64035034 C21.22282977 67.62778714 24.4712814 67.60283961 27.7199955 67.56808472 C32.85984655 67.51365674 37.99956071 67.49035024 43.13964844 67.4715271 C54.04244901 67.42728796 64.94491353 67.34907035 75.8474884 67.26742554 C87.63752369 67.17923659 99.42742398 67.09700814 111.21772307 67.0537529 C116.32524831 67.03385605 121.43213579 66.99447377 126.53940451 66.94003296 C129.71470675 66.91016544 132.88992186 66.89692696 136.06534576 66.88816833 C137.53515293 66.88069095 139.00494401 66.86630791 140.47460747 66.84443665 C142.48391718 66.81547899 144.49356396 66.81376102 146.50308228 66.81332397 C148.18789058 66.80000031 148.18789058 66.80000031 149.90673542 66.78640747 C153.79159601 67.38376585 155.97429612 68.8497594 159.0349884 71.26742554 C160.58085716 74.35916305 160.32858362 76.86172106 160.0349884 80.26742554 C157.87642876 83.20989034 156.68227547 84.15970446 153.05074692 84.76406097 C151.87755527 84.76255287 150.70436363 84.76104477 149.49562073 84.75949097 C148.84039562 84.76416996 148.18517052 84.76884894 147.51009011 84.77366972 C145.31584018 84.78459739 143.12273867 84.76711575 140.92854309 84.74984741 C139.35474306 84.75203344 137.78094465 84.75603042 136.20715332 84.76170349 C132.81800705 84.77027103 129.42917738 84.76648096 126.04004669 84.75328064 C120.67743564 84.7329491 115.31514389 84.74291989 109.95252991 84.75753784 C97.5959957 84.78658276 85.23955497 84.77585182 72.88300323 84.76483917 C61.56837742 84.75515952 50.25391823 84.75392068 38.9393208 84.78471994 C33.61254077 84.79807495 28.28623969 84.79215921 22.95948839 84.77135468 C19.63869562 84.76234748 16.31808606 84.76986222 12.99730873 84.78176689 C11.46227964 84.78389174 9.927223 84.77921125 8.39224052 84.76706123 C-1.32262469 84.69452743 -8.15519682 85.09891939 -15.7775116 91.70492554 C-21.20541754 98.06332964 -23.4610496 104.33926579 -23.2853241 112.67367554 C-22.5244382 118.83499552 -19.45897984 125.00998194 -14.9650116 129.26742554 C-7.14009464 134.09119221 -0.16627627 135.39232017 9 135.39199829 C9.99704129 135.39411351 9.99704129 135.39411351 11.01422483 135.39627147 C13.22193286 135.39989587 15.42957549 135.39660048 17.63728333 135.3934021 C19.22786509 135.39479825 20.81844648 135.39669847 22.4090271 135.39906311 C25.82421352 135.40354594 29.23938797 135.40541588 32.65457726 135.40552521 C38.05406092 135.40666846 43.45347668 135.41952599 48.85293579 135.43508911 C50.22136014 135.43894839 50.22136014 135.43894839 51.61742944 135.44288564 C53.48215427 135.44815152 55.34687904 135.45343701 57.21160376 135.45874166 C69.77570856 135.49383562 82.33972694 135.5203971 94.90388489 135.51791382 C103.38935532 135.51632688 111.87459245 135.53231571 120.35998803 135.56862044 C124.84820713 135.58709759 129.3360365 135.59640738 133.82428551 135.58414459 C138.04098048 135.57273345 142.25697579 135.58435063 146.4735775 135.61377907 C148.02155796 135.62043432 149.56960218 135.61852771 151.11755753 135.607481 C153.22952291 135.59365782 155.33910959 135.61044049 157.45092773 135.63491821 C158.63279254 135.63638477 159.81465734 135.63785133 161.03233624 135.63936234 C164.0349884 136.26742554 164.0349884 136.26742554 166.41133595 138.61945724 C168.4219762 141.89855285 168.74392132 143.48644999 168.0349884 147.26742554 C165.45592042 150.51111811 163.96156875 152.0864349 159.8423748 152.89104462 C158.02344562 152.88997585 158.02344562 152.88997585 156.16777039 152.8888855 C155.48930624 152.89527432 154.8108421 152.90166314 154.11181843 152.90824556 C151.84455498 152.92347272 149.57904569 152.9030518 147.31184387 152.88265991 C145.6836489 152.88616204 144.05545736 152.89182165 142.42727661 152.8994751 C138.00732645 152.91372657 133.58799824 152.89665399 129.16810751 152.87318993 C124.53544961 152.85306703 119.90281721 152.85896159 115.27012634 152.86129761 C107.48396066 152.86124402 99.69803748 152.84148488 91.91194153 152.80941772 C82.929599 152.77260188 73.94757505 152.76373141 64.96516693 152.77071524 C56.30951468 152.77703958 47.65397093 152.7662253 38.99834061 152.74674988 C35.32318186 152.73860717 31.64807883 152.73586059 27.97291183 152.73744202 C23.63406438 152.73832644 19.29551563 152.72395607 14.95674706 152.69821548 C13.3713965 152.69110238 11.78601406 152.68894641 10.20065117 152.69233322 C-4.81136494 152.71826701 -17.39329491 150.54463579 -28.7150116 140.01742554 C-37.58614623 130.55907632 -40.81729593 120.03005878 -40.9650116 107.26742554 C-40.10422706 95.28020382 -34.81885165 85.35901446 -25.9650116 77.26742554 C-25.3050116 77.26742554 -24.6450116 77.26742554 -23.9650116 77.26742554 C-24.6662616 76.60742554 -25.3675116 75.94742554 -26.0900116 75.26742554 C-35.46856714 65.83573371 -40.73802956 55.50683742 -41.0353241 42.09555054 C-40.49997916 28.93236319 -35.5747936 19.53899501 -26.2071991 10.58773804 C-18.53111717 3.66893773 -10.48969032 0.02971961 0 0 Z " fill="#FFFFFF" transform="translate(47.96501159667969,344.7325744628906)"/>
<path d="M0 0 C1.37322922 -0.00639748 1.37322922 -0.00639748 2.77420044 -0.01292419 C3.77636093 -0.01247101 4.77852142 -0.01201782 5.81105042 -0.0115509 C6.86820251 -0.01490952 7.92535461 -0.01826813 9.01454163 -0.02172852 C12.51776801 -0.03124682 16.02094666 -0.03318202 19.52418518 -0.03425598 C21.95412211 -0.03746774 24.38405884 -0.04083175 26.81399536 -0.04434204 C31.91083729 -0.05033536 37.00766225 -0.05218171 42.10450745 -0.05158997 C48.64288193 -0.05148828 55.18114797 -0.06514594 61.71949673 -0.08236217 C66.73885602 -0.09346736 71.75818896 -0.09550964 76.77755928 -0.09498024 C79.18854713 -0.09616239 81.59953561 -0.10059723 84.0105114 -0.10831261 C87.37899809 -0.11808334 90.7472476 -0.115246 94.11573792 -0.10920715 C95.61594231 -0.11763641 95.61594231 -0.11763641 97.14645386 -0.12623596 C98.52391281 -0.11994423 98.52391281 -0.11994423 99.92919922 -0.11352539 C100.72541907 -0.11407016 101.52163893 -0.11461493 102.34198666 -0.1151762 C104.84900091 0.17024845 106.40397284 0.77889681 108.52809143 2.13371277 C111.0084805 5.85429637 110.99146346 7.73167847 110.52809143 12.13371277 C108.66100638 14.49868716 107.20747712 15.79401992 104.52809143 17.13371277 C103.06975549 17.23408991 101.60696826 17.27310288 100.14520264 17.28088379 C99.22412216 17.28803909 98.30304169 17.2951944 97.35404968 17.30256653 C96.34051422 17.30525543 95.32697876 17.30794434 94.2827301 17.31071472 C93.21757675 17.31728592 92.1524234 17.32385712 91.05499268 17.33062744 C87.51868119 17.35039083 83.98241222 17.36202931 80.44606018 17.37199402 C78.63779975 17.37810731 78.63779975 17.37810731 76.7930088 17.3843441 C70.41360774 17.40521697 64.03422827 17.41951391 57.65480042 17.42887878 C51.05697543 17.43995084 44.459487 17.47435687 37.86178112 17.51405048 C32.7960547 17.54016203 27.73040916 17.54856574 22.66462135 17.55216026 C20.23211199 17.55703968 17.79960656 17.5686919 15.3671627 17.58719826 C11.96504716 17.61147467 8.5638115 17.6106454 5.16163635 17.60368347 C4.15417358 17.61649353 3.14671082 17.62930359 2.10871887 17.64250183 C-2.21820911 17.61017896 -4.77878306 17.53965834 -8.57009888 15.31918335 C-11.23953567 12.25159168 -11.54268328 10.16787104 -11.47190857 6.13371277 C-8.41855424 1.11748779 -5.6841712 0.01196943 0 0 Z " fill="#FFFFFF" transform="translate(91.47190856933594,445.8662872314453)"/>
<path d="M0 0 C1.30589333 -0.01073296 1.30589333 -0.01073296 2.63816833 -0.02168274 C3.59559937 -0.02437164 4.5530304 -0.02706055 5.53947449 -0.02983093 C6.54610641 -0.03640213 7.55273834 -0.04297333 8.58987427 -0.04974365 C11.93139209 -0.06950448 15.27286494 -0.08114503 18.61442566 -0.09111023 C19.75373724 -0.09518576 20.89304882 -0.09926128 22.06688499 -0.10346031 C28.09615779 -0.12433222 34.12540773 -0.1386295 40.15470886 -0.147995 C46.38933778 -0.15906605 52.62361043 -0.19347113 58.85811329 -0.23316669 C63.64590123 -0.25928284 68.43360362 -0.26768236 73.22145653 -0.27127647 C75.51999507 -0.2761548 77.81852949 -0.28780401 80.11699867 -0.30631447 C83.33233181 -0.33060053 86.54673441 -0.32975993 89.76213074 -0.32279968 C91.18916824 -0.34201477 91.18916824 -0.34201477 92.64503479 -0.36161804 C96.91855691 -0.32786071 99.22694875 -0.23356341 102.9357605 2.05154419 C104.99569375 4.31270113 105.50727409 5.13903 105.40739441 8.14717102 C105.40868347 8.80717102 105.40997253 9.46717102 105.41130066 10.14717102 C104.53877044 13.2281053 103.44723201 14.23279064 100.84489441 16.14717102 C97.50758205 16.75414781 94.19956302 16.68291804 90.81559753 16.64888 C89.28817177 16.65698448 89.28817177 16.65698448 87.72988892 16.66525269 C84.36167903 16.67776679 80.99431941 16.66123047 77.62614441 16.64326477 C75.28731745 16.6434197 72.94849024 16.64490759 70.60966492 16.64767456 C65.70700233 16.64905976 60.80463186 16.63647984 55.90202332 16.61372375 C49.61355609 16.58533913 43.32557438 16.58807501 37.03707123 16.60081387 C32.20725854 16.60776446 27.37755834 16.59998878 22.54776001 16.58755684 C20.22888622 16.58303634 17.91000038 16.58271074 15.59112549 16.58662224 C12.35189507 16.58952831 9.11333683 16.57305565 5.87419128 16.55122375 C4.43244789 16.55797623 4.43244789 16.55797623 2.96157837 16.56486511 C2.07837418 16.55496048 1.19516998 16.54505585 0.28520203 16.53485107 C-0.48022163 16.53242118 -1.24564529 16.52999128 -2.03426361 16.52748775 C-4.77616562 16.03580038 -6.14337569 15.05231303 -8.15510559 13.14717102 C-9.25883937 9.17372941 -9.57054142 7.0571733 -7.84260559 3.27217102 C-5.37656622 0.1667881 -3.79607348 0.02138489 0 0 Z " fill="#FFFFFF" transform="translate(89.15510559082031,378.8528289794922)"/>
<path d="M0 0 C4.76160008 3.33635924 7.13758923 7.91176834 8.53515625 13.39453125 C8.83349457 19.46074376 7.12847331 24.70357339 3.47265625 29.58203125 C-0.95752265 33.81083838 -5.17294608 35.35489611 -11.21484375 35.70703125 C-17.89058505 35.49365139 -22.10856557 32.43288254 -26.65234375 27.76953125 C-30.11818757 22.30416215 -30.63190772 17.92086387 -29.81640625 11.60546875 C-28.54077716 5.92984365 -24.94694395 2.39602651 -20.27734375 -0.79296875 C-13.64866631 -4.47556733 -6.42108352 -3.61265733 0 0 Z M-11.27734375 13.20703125 C-12.26734375 13.70203125 -12.26734375 13.70203125 -13.27734375 14.20703125 C-12.94734375 15.85703125 -12.61734375 17.50703125 -12.27734375 19.20703125 C-10.95734375 18.87703125 -9.63734375 18.54703125 -8.27734375 18.20703125 C-8.62521083 16.2316638 -8.62521083 16.2316638 -9.27734375 14.20703125 C-9.93734375 13.87703125 -10.59734375 13.54703125 -11.27734375 13.20703125 Z " fill="#FFFFFF" transform="translate(331.27734375,166.79296875)"/>
<path d="M0 0 C5.1039194 3.36394688 8.66952282 7.00906367 10.75 12.8125 C11.56817487 18.74925669 11.0690821 23.80535159 8.09375 29.0546875 C5.11837266 32.94689622 1.34779672 35.27990109 -3.25 36.8125 C-10.18226873 37.43294402 -15.31086254 37.02251827 -20.875 32.48828125 C-25.60994054 28.15171311 -27.0035075 24.3595892 -27.625 17.9375 C-27.46213623 12.61389044 -25.43014799 8.17183824 -21.82421875 4.26953125 C-15.35685791 -1.42909936 -8.1062928 -2.96191468 0 0 Z M-10.25 15.8125 C-9.92 17.4625 -9.59 19.1125 -9.25 20.8125 C-7.93 20.1525 -6.61 19.4925 -5.25 18.8125 C-5.58 17.8225 -5.91 16.8325 -6.25 15.8125 C-7.57 15.8125 -8.89 15.8125 -10.25 15.8125 Z " fill="#FFFFFF" transform="translate(388.25,165.1875)"/>
<path d="M0 0 C2.84442736 1.07677447 3.51078551 3.00567113 4.78515625 5.67578125 C7.40838717 8.86619723 8.74041839 10.48389062 12.84765625 11.23828125 C16.5128599 10.53643374 17.48916788 9.58403318 19.78515625 6.67578125 C20.83703125 5.09796875 20.83703125 5.09796875 21.91015625 3.48828125 C23.78515625 0.67578125 23.78515625 0.67578125 25.78515625 -0.32421875 C29.79818865 -0.85928974 31.32443658 -0.65473503 34.66015625 1.73828125 C37.35980918 5.47015441 37.48743425 7.14998972 36.78515625 11.67578125 C33.88289358 18.44772748 29.10062111 23.61676861 22.39453125 26.81640625 C15.53331876 29.18978164 9.18961317 29.3336786 2.3671875 26.765625 C-3.99037638 23.62411521 -8.05964737 18.986174 -11.21484375 12.67578125 C-11.62826791 9.61644248 -11.68067687 6.73077985 -11.21484375 3.67578125 C-8.010243 -0.53025723 -4.93653383 -0.91348944 0 0 Z " fill="#FFFFFF" transform="translate(337.21484375,220.32421875)"/>
<path d="M0 0 C6.23732049 1.30161112 11.30318224 5.73926771 15.33984375 10.48828125 C18.25455646 16.51270506 18.47583566 23.40007085 16.6875 29.8359375 C14.16643554 35.45152743 10.04382886 39.93361052 4.3203125 42.3359375 C0.09716236 43.55524089 -3.47523051 43.81984853 -7.66015625 42.48828125 C-10.03515625 40.86328125 -10.03515625 40.86328125 -11.66015625 38.48828125 C-12.28515625 35.05078125 -12.28515625 35.05078125 -11.66015625 31.48828125 C-8.31930923 27.91435188 -5.58312919 25.92266122 -0.66015625 25.48828125 C-0.33015625 23.50828125 -0.00015625 21.52828125 0.33984375 19.48828125 C-0.27503906 19.23433594 -0.88992187 18.98039062 -1.5234375 18.71875 C-2.33167969 18.37457031 -3.13992187 18.03039062 -3.97265625 17.67578125 C-4.77316406 17.33933594 -5.57367188 17.00289063 -6.3984375 16.65625 C-8.67819764 15.47896454 -10.07855832 14.49895622 -11.66015625 12.48828125 C-12.29675219 8.19125866 -12.13154924 6.20297385 -9.72265625 2.55078125 C-6.17145507 0.15915597 -4.19969523 -0.2445746 0 0 Z " fill="#FFFFFF" transform="translate(52.66015625,364.51171875)"/>
<path d="M0 0 C5.99483117 1.7879321 10.20767916 5.09699944 14 10 C16.82342346 15.75002851 17.10819274 22.12464336 15.34765625 28.28125 C12.66018951 34.27902986 8.21816057 38.18462737 2.5625 41.375 C-1.05048172 42.25621505 -4.31816655 42.71261293 -8 42 C-11 39.9375 -11 39.9375 -13 37 C-13.61246525 33.12105344 -13.69932657 31.04898985 -11.5 27.75 C-8.15426198 25.40798338 -4.87407702 24.29135901 -1 23 C-0.86559222 20.57080135 -0.86559222 20.57080135 -2 18 C-3.95862431 16.99433864 -5.87602495 16.37470878 -7.9921875 15.7734375 C-10.32679177 14.87411523 -11.46099975 13.96387762 -13 12 C-13.64215333 7.66546502 -13.48564529 5.71329152 -11 2.0625 C-7.22928593 -0.52986592 -4.38006486 -0.74536477 0 0 Z " fill="#FFFFFF" transform="translate(54,434)"/>
</svg>
