<?xml version="1.0" encoding="UTF-8"?>
<svg version="1.1" xmlns="http://www.w3.org/2000/svg" width="64" height="64">
<path d="M0 0 C2.375 1.625 2.375 1.625 4.02709961 4.68066406 C6.14401791 7.98050176 6.14401791 7.98050176 9.99438477 8.36621094 C11.4348009 8.39355403 12.87604499 8.38946983 14.31640625 8.359375 C15.46253639 8.37281952 15.46253639 8.37281952 16.63182068 8.38653564 C19.06783836 8.41061444 21.50147679 8.39472878 23.9375 8.375 C26.37646687 8.37644218 28.81500607 8.38630677 31.25389099 8.40631104 C32.76969682 8.41651289 34.28564036 8.41478445 35.80140686 8.39984131 C39.55273606 8.40258851 41.16932989 8.48788659 44.375 10.625 C44.73144531 13.59008789 44.73144531 13.59008789 44.703125 17.34765625 C44.70125183 18.00833603 44.69937866 18.66901581 44.69744873 19.34971619 C44.6907261 20.74597217 44.67680717 22.14220925 44.65625 23.53833008 C44.6250708 25.68263114 44.61527799 27.82619779 44.609375 29.97070312 C44.53837676 40.46162324 44.53837676 40.46162324 43.375 41.625 C40.51232433 41.69825168 37.674281 41.71738205 34.8125 41.6875 C34.00619141 41.68298828 33.19988281 41.67847656 32.36914062 41.67382812 C30.37106244 41.66200518 28.37302217 41.64406914 26.375 41.625 C26.67470703 43.03845703 26.67470703 43.03845703 26.98046875 44.48046875 C27.375 47.625 27.375 47.625 25.6875 49.9375 C21.36251379 53.09357102 16.63456492 53.29439917 11.375 52.625 C-0.49799142 48.93414499 -5.24064188 37.45314771 -10.78051758 27.32324219 C-13.57259536 21.70841333 -13.79274229 14.38846657 -11.94140625 8.421875 C-9.48839868 3.73978586 -5.62825916 -0.80403702 0 0 Z M-2.625 3.625 C-5.8580362 6.87781013 -8.29324864 9.57120155 -9.6875 14 C-9.50982323 24.30525277 -3.30243172 35.55436912 3.60546875 43.04296875 C7.63746728 46.60493467 10.34147049 48.76758186 15.8125 48.8125 C16.59496094 48.82667969 17.37742187 48.84085938 18.18359375 48.85546875 C20.66705987 48.76586064 20.66705987 48.76586064 23.375 46.625 C21.9812718 42.19041027 19.76917765 39.75121626 16.375 36.625 C15.83875 36.975625 15.3025 37.32625 14.75 37.6875 C11.31669096 39.04275357 9.85445184 38.9471917 6.375 37.625 C2.53524221 33.11191975 -1.19862949 27.54868347 -2.0625 21.625 C-1.625 18.625 -1.625 18.625 0.875 16.25 C1.7 15.71375 2.525 15.1775 3.375 14.625 C3.00171065 9.27451939 1.3792343 7.11587093 -2.625 3.625 Z M7.375 12.625 C8.49928749 18.24643747 10.03736729 19.41523742 14.4375 22.4375 C15.00533203 22.84419922 15.57316406 23.25089844 16.15820312 23.66992188 C17.55488477 24.66755162 18.96379991 25.64801533 20.375 26.625 C24.60074412 23.85225198 28.6986872 20.96348055 32.75 17.9375 C33.29527344 17.53466797 33.84054688 17.13183594 34.40234375 16.71679688 C35.74595637 15.711613 37.06325255 14.67142636 38.375 13.625 C38.375 13.295 38.375 12.965 38.375 12.625 C28.145 12.625 17.915 12.625 7.375 12.625 Z M36.953125 18.43359375 C36.25703125 19.01560547 35.5609375 19.59761719 34.84375 20.19726562 C33.37565241 21.43144978 31.91202128 22.67096835 30.453125 23.91601562 C29.751875 24.49931641 29.050625 25.08261719 28.328125 25.68359375 C27.69036133 26.22298584 27.05259766 26.76237793 26.39550781 27.31811523 C24.00983994 28.8611892 22.19783075 29.36928407 19.375 29.625 C16.65625 28.078125 16.65625 28.078125 13.875 25.875 C8.84888713 21.91162352 8.84888713 21.91162352 3.375 18.625 C2.385 19.12 2.385 19.12 1.375 19.625 C1.68189209 25.60939567 4.58106273 30.14211393 8.375 34.625 C9.365 34.955 10.355 35.285 11.375 35.625 C12.035 35.295 12.695 34.965 13.375 34.625 C16.6875 34.125 16.6875 34.125 20.375 34.625 C22.47822368 36.71775988 23.94258983 39.03742033 25.375 41.625 C25.705 40.635 26.035 39.645 26.375 38.625 C27.37402344 38.63660156 28.37304688 38.64820312 29.40234375 38.66015625 C30.69269531 38.66917969 31.98304687 38.67820312 33.3125 38.6875 C34.60027344 38.69910156 35.88804688 38.71070312 37.21484375 38.72265625 C40.23798403 38.99032549 40.23798403 38.99032549 41.375 37.625 C41.46200342 35.99027118 41.48201063 34.35185945 41.47265625 32.71484375 C41.46943359 31.72548828 41.46621094 30.73613281 41.46289062 29.71679688 C41.45451172 28.67587891 41.44613281 27.63496094 41.4375 26.5625 C41.43298828 25.51771484 41.42847656 24.47292969 41.42382812 23.39648438 C41.41199913 20.8059334 41.39551689 18.21549441 41.375 15.625 C39.54538996 15.625 38.28859311 17.29844585 36.953125 18.43359375 Z " fill="#FFFFFF" transform="translate(16.625,5.375)"/>
</svg>
