<?xml version="1.0" encoding="UTF-8"?>
<svg version="1.1" xmlns="http://www.w3.org/2000/svg" width="512" height="512">
<path d="M0 0 C4.83279506 3.94192093 7.41802239 8.82748702 10.25 14.3125 C10.72526123 15.22894287 11.20052246 16.14538574 11.69018555 17.08959961 C29.19963399 51.75474073 37.47551663 89.95475311 37.3125 128.625 C37.31034485 129.54820038 37.3081897 130.47140076 37.30596924 131.4225769 C37.25344767 145.46572217 36.8206029 159.1985594 34 173 C33.70198486 174.47098145 33.70198486 174.47098145 33.39794922 175.97167969 C24.08700289 220.45498734 4.8541664 262.15188392 -26.54296875 295.390625 C-28.64729353 297.62542461 -30.64736095 299.90411092 -32.625 302.25 C-35.06417608 305.09863009 -37.66912888 307.42944059 -40.5625 309.8125 C-44.80222324 313.47212598 -46.99263429 317.25280737 -49.4921875 322.2109375 C-60.73890695 343.01445482 -82.96193811 357.5293524 -105.17578125 364.26171875 C-111.62916961 365.94870409 -117.90350087 366.98849216 -124.58203125 367.12890625 C-134.39515613 367.3441521 -143.25440504 368.29001481 -152.75 370.875 C-213.28370304 387.02181943 -280.88890601 375.74738231 -335.02441406 345.15136719 C-341.90840851 341.1393902 -348.68404086 336.86313561 -355 332 C-354.7834375 332.845625 -354.566875 333.69125 -354.34375 334.5625 C-351.19732441 347.3812709 -351.19732441 347.3812709 -352 353 C-354.44128731 356.44652326 -355.82966874 357.78056289 -360 358.5625 C-363.89834853 357.83155965 -365.22054813 356.86490732 -368 354 C-369.5030179 350.70117225 -370.44312129 347.28316111 -371.40234375 343.79296875 C-371.68856094 342.79421219 -371.97477814 341.79545563 -372.26966858 340.76643372 C-372.86903212 338.65659296 -373.4593682 336.54416956 -374.04125977 334.42944336 C-374.93353926 331.20182707 -375.86397563 327.98699308 -376.79882812 324.77148438 C-377.37733271 322.71680119 -377.95358036 320.66148094 -378.52734375 318.60546875 C-378.80634018 317.64795212 -379.08533661 316.69043549 -379.37278748 315.7039032 C-380.89983135 310.03089729 -381.35328813 306.45659953 -379 301 C-374.68369089 296.74510179 -368.45085595 297.43255019 -362.75 297.3125 C-361.65985596 297.28196533 -360.56971191 297.25143066 -359.4465332 297.2199707 C-357.14439523 297.16115275 -354.84203671 297.11048005 -352.53955078 297.06738281 C-350.17572459 297.0223824 -347.81207361 296.96700658 -345.44873047 296.90136719 C-342.02835148 296.8072937 -338.6087065 296.7426077 -335.1875 296.6875 C-334.12692383 296.65760986 -333.06634766 296.62771973 -331.97363281 296.59692383 C-324.64728236 296.54134874 -324.64728236 296.54134874 -321.359375 298.87109375 C-319.72389628 301.43240382 -319.07275212 302.94441102 -319 306 C-320.99435983 311.35328165 -320.99435983 311.35328165 -323.78808594 313.14990234 C-326.35966103 314.13822734 -328.45172819 314.31808354 -331.203125 314.4140625 C-332.1828125 314.45273437 -333.1625 314.49140625 -334.171875 314.53125 C-335.69554687 314.57765625 -335.69554687 314.57765625 -337.25 314.625 C-338.28125 314.66367187 -339.3125 314.70234375 -340.375 314.7421875 C-342.9164894 314.83631674 -345.45797433 314.92194979 -348 315 C-318.80914461 335.08968352 -287.87143074 348.97904474 -253 356 C-251.84346924 356.23759033 -251.84346924 356.23759033 -250.66357422 356.47998047 C-227.39952981 361.08323867 -198.1222871 363.15257276 -175 357 C-175.59425781 356.67128906 -176.18851563 356.34257812 -176.80078125 356.00390625 C-193.76802591 346.2668716 -206.11249903 333.26783448 -215.375 316.1875 C-215.89416992 315.23605103 -215.89416992 315.23605103 -216.42382812 314.26538086 C-218.23334742 310.8353627 -219.33494442 307.80234766 -220 304 C-220.5902446 304.00666183 -221.1804892 304.01332367 -221.78862 304.02018738 C-227.93674264 304.08660302 -234.08476321 304.1318265 -240.2331543 304.16479492 C-242.52714172 304.17987308 -244.82110037 304.2003387 -247.11499023 304.22631836 C-250.41397205 304.26274358 -253.7125724 304.27973631 -257.01171875 304.29296875 C-258.54792122 304.31619453 -258.54792122 304.31619453 -260.11515808 304.33988953 C-269.02061205 304.34199017 -269.02061205 304.34199017 -273 301 C-274.97618067 298.39503457 -275.01911179 297.23411943 -274.75 293.9375 C-274 291 -274 291 -272 288 C-269.19462697 287.06487566 -267.51834636 286.87817093 -264.62036133 286.88647461 C-263.73967484 286.88655014 -262.85898834 286.88662567 -261.95161438 286.88670349 C-261.00465195 286.89186478 -260.05768951 286.89702606 -259.08203125 286.90234375 C-258.10965012 286.9037587 -257.13726898 286.90517365 -256.13542175 286.90663147 C-253.02774996 286.91223183 -249.92015004 286.92478438 -246.8125 286.9375 C-244.70638125 286.94251495 -242.60026137 286.94707787 -240.49414062 286.95117188 C-235.32939936 286.96220138 -230.16471187 286.97946625 -225 287 C-225.24339111 285.39040405 -225.24339111 285.39040405 -225.49169922 283.74829102 C-226.0286158 279.78898255 -226.14775252 275.92298227 -226.125 271.9375 C-226.12886719 271.25623047 -226.13273438 270.57496094 -226.13671875 269.87304688 C-226.12889795 265.80232172 -225.71256496 261.99977502 -225 258 C-225.75310959 258.00444122 -226.50621918 258.00888245 -227.28215027 258.01345825 C-234.38847823 258.0535754 -241.49476679 258.08400494 -248.60117626 258.10362434 C-252.25443043 258.11405004 -255.90759081 258.12818695 -259.56079102 258.15087891 C-263.08804048 258.17265076 -266.61519988 258.18457776 -270.14251137 258.18975449 C-272.13940529 258.19523412 -274.13626311 258.21084016 -276.13310242 258.22659302 C-277.35399063 258.22674408 -278.57487885 258.22689514 -279.83276367 258.22705078 C-280.90531906 258.231492 -281.97787445 258.23593323 -283.08293152 258.24050903 C-286.15352888 257.98734172 -288.27534143 257.42746112 -291 256 C-293.1272776 252.8090836 -293.33381412 250.79840226 -293.55859375 247.03515625 C-292.67271633 243.80758888 -290.74409593 242.80476327 -288 241 C-284.81718445 240.51898193 -284.81718445 240.51898193 -281.19018555 240.54589844 C-280.19422615 240.54502228 -280.19422615 240.54502228 -279.17814636 240.54412842 C-276.99712698 240.54690133 -274.81749747 240.57795195 -272.63671875 240.609375 C-271.11929572 240.6168403 -269.60186302 240.62253187 -268.08442688 240.62652588 C-264.10083144 240.64175968 -260.1178243 240.6810212 -256.13446045 240.7253418 C-252.0656327 240.76634368 -247.9967094 240.78454733 -243.92773438 240.8046875 C-235.95155369 240.8475184 -227.97585014 240.9157415 -220 241 C-219.85085144 240.21470917 -219.70170288 239.42941833 -219.54803467 238.62033081 C-219.04774952 236.22830586 -218.40854666 234.43092006 -217.328125 232.2578125 C-216.99296875 231.58363281 -216.6578125 230.90945313 -216.3125 230.21484375 C-215.961875 229.52519531 -215.61125 228.83554687 -215.25 228.125 C-214.91484375 227.44308594 -214.5796875 226.76117188 -214.234375 226.05859375 C-213.8940625 225.38183594 -213.55375 224.70507812 -213.203125 224.0078125 C-212.90051758 223.40598145 -212.59791016 222.80415039 -212.28613281 222.18408203 C-210.39714832 218.97625074 -208.19546134 216.003514 -206 213 C-207.24612061 212.98541748 -208.49224121 212.97083496 -209.77612305 212.95581055 C-214.40759712 212.897757 -219.03858862 212.82052424 -223.66967773 212.73754883 C-225.67252764 212.70433273 -227.6754704 212.67629048 -229.6784668 212.65356445 C-232.56078594 212.61995766 -235.44225668 212.56763852 -238.32421875 212.51171875 C-239.21711105 212.50532883 -240.11000336 212.4989389 -241.029953 212.49235535 C-245.8256359 212.37941401 -249.10427432 212.10937957 -253 209 C-254.92863839 206.45770394 -255.00902291 205.21654982 -254.875 202 C-253.84580488 198.471331 -252.86677094 197.26518929 -250 195 C-247.1835022 194.53485107 -247.1835022 194.53485107 -243.89306641 194.58105469 C-242.65722809 194.58715759 -241.42138977 194.5932605 -240.14810181 194.59954834 C-239.48953815 194.61171135 -238.8309745 194.62387436 -238.15245438 194.63640594 C-236.07273111 194.67237362 -233.99465843 194.67980894 -231.91464233 194.67926025 C-226.00264811 194.68187296 -220.09157244 194.72750774 -214.18017578 194.81103516 C-210.55708302 194.86021998 -206.93554825 194.86929195 -203.31217575 194.85544586 C-201.28829638 194.8592587 -199.26464893 194.90706056 -197.24136353 194.95623779 C-188.1574091 194.90960714 -182.39088224 192.75782028 -174.9475708 187.91395569 C-156.85127462 176.16342912 -131.54716927 174.32166871 -110.84985352 178.5234375 C-85.23525265 184.36868108 -64.35950059 199.30112456 -49.8828125 221.203125 C-39.05808222 239.09456599 -35.92817026 257.38484994 -35 278 C2.63925667 236.26246595 22.19895602 177.09744326 19.75 121.1953125 C17.73722196 85.07477894 9.17933468 50.91422509 -8.22705078 19.08081055 C-12.44559189 11.10848286 -12.44559189 11.10848286 -11.94140625 6.95703125 C-9.8979173 0.53827137 -6.60560939 -1.04299096 0 0 Z M-189 219 C-203.69301196 235.42743158 -209.88573002 256.09768689 -209.13623047 277.78662109 C-208.15111097 293.79216483 -201.45918281 310.74946544 -191 323 C-190.34 323 -189.68 323 -189 323 C-188.75765625 323.57234375 -188.5153125 324.1446875 -188.265625 324.734375 C-181.21106855 337.36290198 -164.39398943 343.96027014 -151.27734375 348.08984375 C-146.43427796 349.43481911 -142.22253956 350.12316313 -137.1875 350.0625 C-136.21167969 350.05347656 -135.23585938 350.04445313 -134.23046875 350.03515625 C-133.49441406 350.02355469 -132.75835937 350.01195312 -132 350 C-134.67642489 347.81509993 -134.67642489 347.81509993 -137 348 C-138.18637743 344.44086771 -138.14615346 341.201855 -138.125 337.5 C-138.12886719 336.82324219 -138.13273437 336.14648438 -138.13671875 335.44921875 C-138.13062416 332.35926233 -137.9844023 329.95320689 -137 327 C-129.80318209 325.65822039 -129.80318209 325.65822039 -126.0625 327.25 C-124 329 -124 329 -123 332 C-122.60275196 336.935043 -122.34324403 341.46756939 -124.3125 346.0625 C-126 348 -126 348 -129 350 C-111.32727683 351.52937027 -94.12516978 343.76951292 -80.79296875 332.69921875 C-78.91362062 331.11188517 -78.91362062 331.11188517 -78 329 C-79.258125 328.855625 -80.51625 328.71125 -81.8125 328.5625 C-84.42667123 328.26251314 -86.47439892 327.84186703 -89 327 C-89.33 326.01 -89.66 325.02 -90 324 C-90.66 324 -91.32 324 -92 324 C-93.89569691 320.71412535 -94.76762265 317.79549678 -95 314 C-93.9375 311.1875 -93.9375 311.1875 -92 309 C-88.38649725 307.71519902 -86.56133118 307.80525245 -82.9375 309.0625 C-78.96406222 311.68327811 -75.64564267 314.36520821 -74.46875 319.16796875 C-74.22221253 321.10260304 -74.10074186 323.05232404 -74 325 C-62.24823081 316.30168195 -55.19641854 299.15469726 -53 285 C-52.79727255 281.31486542 -52.80416353 277.68462691 -53 274 C-53.598125 274.804375 -54.19625 275.60875 -54.8125 276.4375 C-57.33266077 279.38968833 -58.71125523 279.89626203 -62.5234375 280.203125 C-66.70622677 280.27188318 -70.16151105 280.30185602 -74.125 278.875 C-76 277 -76 277 -77 274.125 C-77 270.45072121 -76.22281338 268.88142475 -74 266 C-71.16239474 264.58119737 -68.72317025 264.8679528 -65.5625 264.875 C-64.40878906 264.87242187 -63.25507813 264.86984375 -62.06640625 264.8671875 C-59 265 -59 265 -56 266 C-54.3125 268.0625 -54.3125 268.0625 -53 270 C-52.44345728 250.09803226 -61.0868747 232.73024173 -74 218 C-88.78109878 202.90151566 -107.2620946 194.22462301 -128.54638672 193.69946289 C-151.84923101 193.57295731 -172.52090416 202.62245285 -189 219 Z " fill="#FFFFFF" transform="translate(467,127)"/>
<path d="M0 0 C0.9957756 0.2650383 1.99155121 0.5300766 3.01750183 0.80314636 C6.38467035 1.70227436 9.74683845 2.61887068 13.109375 3.53515625 C15.53620542 4.1866307 17.96338286 4.83681352 20.39086914 5.48583984 C24.45641677 6.57356969 28.52141114 7.66328112 32.58485413 8.7588501 C45.34869098 12.20010892 58.12445416 15.59571056 70.90234375 18.984375 C75.13056132 20.10609767 79.35873732 21.22797697 83.58691406 22.34985352 C84.63838938 22.62883201 85.68986469 22.9078105 86.7732029 23.19524288 C97.07944738 25.92989303 107.38517265 28.66648404 117.68938637 31.40877724 C119.55404471 31.90486692 121.41879579 32.40060822 123.28365135 32.89595604 C127.52720649 34.02323264 131.76940195 35.15501188 136.0085144 36.29888916 C139.32651914 37.19348123 142.65081643 38.05758291 145.98098755 38.90570068 C147.61377536 39.33254868 149.24649897 39.75964234 150.87915039 40.18701172 C151.62608626 40.37109148 152.37302214 40.55517124 153.14259243 40.74482918 C157.41801621 41.88202373 160.15930929 43.03348836 162.859375 46.59765625 C164.06271924 50.73415209 164.37521745 52.64850614 162.296875 56.47265625 C159.859375 58.59765625 159.859375 58.59765625 153.859375 59.59765625 C153.859375 84.34765625 153.859375 109.09765625 153.859375 134.59765625 C155.509375 135.25765625 157.159375 135.91765625 158.859375 136.59765625 C160.75013845 137.52450108 162.62511832 138.48412584 164.484375 139.47265625 C165.42539062 139.96507812 166.36640625 140.4575 167.3359375 140.96484375 C170.0237332 142.70400567 171.23104409 143.86098624 172.859375 146.59765625 C173.25378418 149.55064392 173.25378418 149.55064392 173.27929688 153.03100586 C173.29520874 154.33593491 173.31112061 155.64086395 173.32751465 156.9853363 C173.32878191 158.40689032 173.32895877 159.82844566 173.328125 161.25 C173.33522827 162.71204419 173.34292751 164.17408559 173.35119629 165.63612366 C173.36463466 168.69849397 173.36621287 171.76060652 173.36035156 174.82299805 C173.35445556 178.74190947 173.38504363 182.65958195 173.42546844 186.57825375 C173.45135459 189.59724049 173.45422213 192.61592925 173.45057678 195.63501167 C173.45226718 197.07948483 173.46190227 198.52397187 173.47972107 199.96833611 C173.50192242 201.99040695 173.48899447 204.01277056 173.47460938 206.03491211 C173.47666382 207.18422714 173.47871826 208.33354218 173.48083496 209.51768494 C172.66593298 213.55635981 171.02571178 215.04656569 167.859375 217.59765625 C164.734375 218.41015625 164.734375 218.41015625 160.859375 217.59765625 C156.96758557 215.20185964 153.42297564 212.45181113 149.859375 209.59765625 C148.5295247 208.59302897 147.1975814 207.59112564 145.859375 206.59765625 C141.44141367 208.55402842 137.70159288 211.55613661 133.90039062 214.49609375 C129.7669167 217.5022566 126.91427004 218.15387807 121.859375 217.59765625 C118.6743393 215.83750494 118.02640528 215.09874709 116.859375 211.59765625 C116.76024083 209.54878168 116.72110364 207.49681618 116.71411133 205.44555664 C116.70454155 203.54327049 116.70454155 203.54327049 116.69477844 201.60255432 C116.69324979 200.21680743 116.69213581 198.83106004 116.69140625 197.4453125 C116.68819274 196.02428656 116.6848286 194.60326096 116.68132019 193.18223572 C116.6753331 190.20392083 116.67347988 187.22563494 116.67407227 184.24731445 C116.67417391 180.43294514 116.66051769 176.61876189 116.64330006 172.80443668 C116.63217646 169.86961515 116.63015316 166.93483855 116.63068199 163.99999809 C116.62950257 162.59379879 116.62508291 161.18759829 116.61734962 159.78141975 C116.6075423 157.81402105 116.61169396 155.84656777 116.61645508 153.87915039 C116.61503006 152.76012833 116.61360504 151.64110626 116.61213684 150.48817444 C116.86024068 147.58753538 117.15652189 145.94684668 118.859375 143.59765625 C120.62217712 142.7829895 120.62217712 142.7829895 122.71850586 142.25439453 C128.12657802 140.42342107 132.49837927 138.36971683 135.859375 133.59765625 C138.83600765 123.17404164 137.83729747 111.65544489 137.49023438 100.92523193 C137.37607941 96.82961669 137.35932837 92.73367578 137.33398438 88.63671875 C137.27023011 80.62025378 137.0993441 72.61077481 136.859375 64.59765625 C136.25464355 64.77417725 135.64991211 64.95069824 135.02685547 65.13256836 C132.26371003 65.93696481 129.49906953 66.73610102 126.734375 67.53515625 C125.78304688 67.81294922 124.83171875 68.09074219 123.8515625 68.37695312 C122.9234375 68.64443359 121.9953125 68.91191406 121.0390625 69.1875 C120.19069824 69.43363037 119.34233398 69.67976074 118.46826172 69.93334961 C115.61599717 70.65962809 112.76727478 71.15014421 109.859375 71.59765625 C109.86825745 72.71630066 109.87713989 73.83494507 109.8862915 74.98748779 C109.96733239 85.52294466 110.02731884 96.05833841 110.06662369 106.5940361 C110.08750999 112.01073941 110.11584693 117.42719136 110.16113281 122.84375 C110.20455297 128.06978073 110.22850425 133.29556949 110.23888397 138.52176666 C110.2462822 140.51691752 110.26072904 142.51205495 110.28229523 144.50710297 C110.3112782 147.29897311 110.31533313 150.08983988 110.31347656 152.88183594 C110.32785767 153.7090213 110.34223877 154.53620667 110.35705566 155.38845825 C110.33195763 158.87005142 110.17746337 161.13064404 108.19255066 164.04486084 C105.45813287 165.86469441 103.2944172 166.51258902 100.07446289 167.15820312 C98.33871506 167.51676392 98.33871506 167.51676392 96.56790161 167.88256836 C95.34408783 168.11854736 94.12027405 168.35452637 92.859375 168.59765625 C91.65529999 168.8407251 90.45122498 169.08379395 89.21066284 169.33422852 C85.2834694 170.11900917 81.35165731 170.87758475 77.41796875 171.62890625 C75.95986594 171.90879743 74.50178226 172.18878829 73.04371643 172.46887207 C70.00431942 173.05206878 66.96456478 173.63335615 63.92456055 174.21337891 C60.85139285 174.79993677 57.77882111 175.38946697 54.70678711 175.98193359 C9.02000881 184.79208916 -29.49025695 186.61001953 -75.35467529 177.66717529 C-79.9040757 176.7825123 -84.45631081 175.91256864 -89.00823975 175.04102707 C-92.6780027 174.33794299 -96.34695392 173.63116632 -100.01416016 172.91485596 C-106.33705561 171.68313354 -112.65805405 170.4879971 -119.01953125 169.46777344 C-120.041073 169.29998383 -121.06261475 169.13219421 -122.1151123 168.95932007 C-123.95261684 168.6626653 -125.79282249 168.3820249 -127.63586426 168.12197876 C-128.4334314 167.99197479 -129.23099854 167.86197083 -130.05273438 167.72802734 C-131.06660217 167.57918594 -131.06660217 167.57918594 -132.10095215 167.42733765 C-135.39831647 166.08606283 -136.98045583 164.42217926 -139.140625 161.59765625 C-139.83444656 158.64522976 -139.77419093 155.78931304 -139.70825195 152.76831055 C-139.70898209 151.88975906 -139.70971222 151.01120758 -139.71046448 150.10603333 C-139.70698923 147.21067935 -139.6681314 144.31694688 -139.62890625 141.421875 C-139.61957789 139.41120787 -139.61246189 137.40052936 -139.60746765 135.3898468 C-139.58839972 130.10416144 -139.53930023 124.81916577 -139.48394775 119.53375244 C-139.43275113 114.13783091 -139.4099527 108.74179766 -139.38476562 103.34570312 C-139.33118167 92.76271822 -139.24587096 82.18024464 -139.140625 71.59765625 C-139.83036407 71.479702 -140.52010315 71.36174774 -141.23074341 71.24021912 C-147.27934456 70.17778118 -153.20530095 68.92113514 -159.1328125 67.3203125 C-159.92664337 67.10829697 -160.72047424 66.89628143 -161.5383606 66.67784119 C-163.19416421 66.2339104 -164.84934608 65.78765428 -166.50390625 65.33911133 C-169.02893893 64.6565573 -171.55723942 63.98718878 -174.0859375 63.31835938 C-175.705943 62.88230408 -177.32574246 62.44548239 -178.9453125 62.0078125 C-179.69432831 61.81083267 -180.44334412 61.61385284 -181.21505737 61.41090393 C-185.26214337 60.29978099 -188.71997058 59.05744811 -192.140625 56.59765625 C-193.70998094 53.45894437 -193.49263603 51.05909803 -193.140625 47.59765625 C-189.03156022 41.98075752 -183.85067079 40.95850286 -177.31640625 39.3046875 C-176.19054611 39.00483948 -175.06468597 38.70499146 -173.90470886 38.39605713 C-170.75698281 37.56117345 -167.6056825 36.74174524 -164.45236206 35.92830276 C-161.06644705 35.05076798 -157.6858438 34.15322934 -154.3046875 33.25756836 C-148.15694508 31.63154662 -142.00617058 30.0173962 -135.85400391 28.40820312 C-123.69531993 25.22597175 -111.54891981 21.99761201 -99.40234375 18.76953125 C-94.93905783 17.58353379 -90.47575766 16.39758995 -86.01245117 15.21166992 C-84.90705018 14.91793078 -83.80164919 14.62419165 -82.6627512 14.32155132 C-74.91460211 12.26304795 -67.16527028 10.2090426 -59.4152832 8.1574707 C-58.36286532 7.8788022 -57.31044744 7.60013371 -56.22613811 7.31302071 C-48.01493989 5.13879937 -48.01493989 5.13879937 -44.11137962 4.10657501 C-41.38464286 3.38552554 -38.65812262 2.66366249 -35.93164062 1.94165039 C-34.74310218 1.62776477 -34.74310218 1.62776477 -33.53055286 1.30753803 C-32.78751754 1.11062461 -32.04448221 0.91371119 -31.27893066 0.71083069 C-30.57747547 0.52506312 -29.87602028 0.33929556 -29.15330887 0.14789867 C-27.22356226 -0.37966975 -25.30697009 -0.95466113 -23.39141846 -1.53164673 C-15.32872971 -3.69116845 -7.88649274 -2.18748173 0 0 Z M-22.93481445 15.98022461 C-24.66987495 16.43938515 -24.66987495 16.43938515 -26.43998718 16.90782166 C-27.69858047 17.24761551 -28.95717377 17.58740936 -30.25390625 17.9375 C-31.59745374 18.29539623 -32.94115174 18.65272785 -34.2849884 19.00953674 C-37.92000311 19.97632976 -41.55295279 20.95067699 -45.18552399 21.92660522 C-48.97860077 22.94454478 -52.77328449 23.95645595 -56.56787109 24.96875 C-61.28348796 26.22705861 -65.99894205 27.48596096 -70.71362305 28.74777222 C-80.98127788 31.4947917 -91.25610103 34.21321542 -101.53713799 36.90970039 C-105.9818761 38.0760623 -110.42563289 39.2461585 -114.86943531 40.41607952 C-118.41697312 41.34969652 -121.96509469 42.28096877 -125.51455688 43.20724487 C-129.45698728 44.23623959 -133.39653086 45.27589589 -137.3359375 46.31640625 C-138.50977493 46.62083145 -139.68361237 46.92525665 -140.89302063 47.23890686 C-141.95715683 47.52164963 -143.02129303 47.8043924 -144.11767578 48.09570312 C-145.50879074 48.46060852 -145.50879074 48.46060852 -146.92800903 48.83288574 C-149.31027021 49.47575744 -149.31027021 49.47575744 -151.140625 51.59765625 C-150.59307053 51.74116516 -150.04551605 51.88467407 -149.48136902 52.03253174 C-142.09632469 53.96851035 -134.7120684 55.90748313 -127.328125 57.84765625 C-126.09775513 58.17090881 -124.86738525 58.49416138 -123.59973145 58.82720947 C-107.00192912 63.19005581 -90.41270738 67.58421483 -73.83203125 72.01171875 C-72.98110083 72.23890091 -72.1301704 72.46608307 -71.25345421 72.70014954 C-62.77704024 74.96334115 -54.30114239 77.22844632 -45.82643032 79.49800301 C-42.64624929 80.34938218 -39.46574906 81.19956448 -36.28518486 82.04951096 C-34.79772918 82.4473428 -33.31042737 82.84575045 -31.82328987 83.24477005 C-29.77872717 83.79333667 -27.73366263 84.33999329 -25.68847656 84.88623047 C-24.53913635 85.19406464 -23.38979614 85.5018988 -22.20562744 85.81906128 C-21.19417664 86.07599762 -20.18272583 86.33293396 -19.140625 86.59765625 C-18.29909882 86.82380112 -17.45757263 87.04994598 -16.59054565 87.28294373 C-13.53599356 87.67532615 -11.36621427 87.14426347 -8.39404297 86.34448242 C-7.24690826 86.04149734 -6.09977356 85.73851227 -4.9178772 85.42634583 C-3.04427017 84.91366402 -3.04427017 84.91366402 -1.1328125 84.390625 C0.20243675 84.03358111 1.53794396 83.67750072 2.87368774 83.3223114 C6.49344051 82.35688046 10.10945953 81.37808956 13.72496033 80.39687347 C17.50497564 79.37346661 21.28829128 78.3624126 25.07128906 77.35009766 C31.41363326 75.65118982 37.75391256 73.94476696 44.09277344 72.23291016 C53.02147365 69.82176105 61.95370935 67.4239402 70.88706589 65.0301075 C87.5479603 60.56544226 104.20495502 56.08641154 120.859375 51.59765625 C120.529375 50.93765625 120.199375 50.27765625 119.859375 49.59765625 C117.04102842 48.68859284 114.25920682 47.89982495 111.39453125 47.1640625 C110.51196152 46.9306163 109.62939178 46.6971701 108.72007751 46.45664978 C105.78930282 45.68347643 102.85565038 44.92185712 99.921875 44.16015625 C97.86764958 43.62051046 95.81361532 43.08013652 93.75976562 42.5390625 C88.47513348 41.14890573 83.18809484 39.76815844 77.90020752 38.39044189 C73.30092094 37.19134646 68.7031832 35.98635681 64.10546875 34.78125 C58.99083441 33.44074275 53.87591052 32.10141495 48.75927734 30.76855469 C39.29562994 28.30087534 29.84392514 25.79307026 20.40234375 23.2421875 C18.31967365 22.68094434 16.23699147 22.11974602 14.15429688 21.55859375 C10.1550122 20.48077685 6.15803493 19.39488279 2.16210938 18.3046875 C0.34643635 17.81479947 -1.4693148 17.32520088 -3.28515625 16.8359375 C-4.11022171 16.60840286 -4.93528717 16.38086823 -5.78535461 16.1464386 C-6.55203964 15.94125107 -7.31872467 15.73606354 -8.10864258 15.5246582 C-9.10109734 15.25465752 -9.10109734 15.25465752 -10.11360168 14.97920227 C-14.67741411 14.12015716 -18.48791715 14.79087147 -22.93481445 15.98022461 Z M-122.140625 76.59765625 C-122.140625 101.34765625 -122.140625 126.09765625 -122.140625 151.59765625 C-86.30382339 158.58333558 -86.30382339 158.58333558 -50.390625 165.16015625 C-49.70373596 165.28167053 -49.01684692 165.40318481 -48.30914307 165.52838135 C-37.56647562 167.42360938 -27.25043755 168.8097058 -16.328125 168.91015625 C-15.35037109 168.93916016 -14.37261719 168.96816406 -13.36523438 168.99804688 C9.13243831 169.17758631 31.86321308 163.39917425 53.796875 158.97265625 C57.48608296 158.2336023 61.17566565 157.49647795 64.86561584 156.76113892 C67.12900875 156.3095373 69.39193936 155.85560906 71.65428162 155.39877319 C72.68738968 155.19160675 73.72049774 154.98444031 74.78491211 154.77099609 C75.67166122 154.59208832 76.55841034 154.41318054 77.47203064 154.22885132 C82.58753974 153.2756314 87.72661268 152.45311664 92.859375 151.59765625 C92.859375 126.84765625 92.859375 102.09765625 92.859375 76.59765625 C86.18698366 77.93213452 79.69176607 79.35393636 73.14624023 81.13549805 C72.2326474 81.38123566 71.31905457 81.62697327 70.3777771 81.88015747 C68.41271078 82.40876317 66.44797669 82.93860519 64.48354912 83.4695797 C60.29617587 84.59960853 56.10571536 85.71797057 51.9153986 86.83702564 C44.13335661 88.91531137 36.3525568 90.99791871 28.57739258 93.10180664 C23.14892726 94.57021731 17.71651005 96.02309338 12.28117561 97.46586037 C10.21887325 98.01635493 8.15808033 98.57253818 6.09890556 99.13461876 C3.21734716 99.92045858 0.33114356 100.68633532 -2.55688477 101.44799805 C-3.39713699 101.6822197 -4.23738922 101.91644135 -5.10310364 102.15776062 C-12.39462115 104.04258004 -18.74737989 103.394364 -25.99047852 101.49707031 C-26.83760406 101.27837784 -27.68472961 101.05968536 -28.55752563 100.83436584 C-29.45248749 100.59640793 -30.34744934 100.35845001 -31.26953125 100.11328125 C-32.23748627 99.86110336 -33.20544128 99.60892548 -34.20272827 99.34910583 C-37.37121397 98.52158431 -40.53716028 97.68476594 -43.703125 96.84765625 C-45.91144225 96.26891508 -48.11985846 95.69055141 -50.32836914 95.11254883 C-61.90247048 92.07560396 -73.46060939 88.98134655 -85.0078125 85.84375 C-86.11448776 85.54310638 -87.22116302 85.24246277 -88.3613739 84.93270874 C-93.69101528 83.48320022 -99.01877419 82.02719284 -104.34399414 80.56152344 C-105.31905914 80.29461197 -106.29412415 80.0277005 -107.29873657 79.75270081 C-109.1198177 79.25419096 -110.94008368 78.75269001 -112.7593689 78.24766541 C-113.56057159 78.02889236 -114.36177429 77.81011932 -115.18725586 77.5847168 C-115.88249863 77.39298386 -116.57774139 77.20125092 -117.29405212 77.00370789 C-119.31384299 76.49027439 -119.31384299 76.49027439 -122.140625 76.59765625 Z M136.05957031 152.04785156 C131.08519855 157.81264725 132.88883746 166.79721072 133.234375 173.97265625 C133.28456457 175.77591909 133.33018699 177.57931521 133.37109375 179.3828125 C133.48102442 183.7910581 133.65336742 188.19289734 133.859375 192.59765625 C134.40207031 192.24324463 134.94476563 191.88883301 135.50390625 191.52368164 C136.21933594 191.06469482 136.93476563 190.60570801 137.671875 190.1328125 C138.37957031 189.67527588 139.08726562 189.21773926 139.81640625 188.74633789 C142.77064692 187.0852836 144.53335183 186.9740269 147.859375 187.59765625 C149.27187953 188.24060914 150.66735054 188.92184856 152.046875 189.6328125 C152.76230469 189.99898682 153.47773438 190.36516113 154.21484375 190.74243164 C154.75753906 191.02465576 155.30023438 191.30687988 155.859375 191.59765625 C156.10737434 186.43850699 156.28835892 181.28284837 156.40869141 176.11914062 C156.45885751 174.36494516 156.5270151 172.61116541 156.61376953 170.85839844 C157.53222959 160.80065278 157.53222959 160.80065278 153.65917969 152.07910156 C146.9363689 147.96413173 142.79129552 147.9274253 136.05957031 152.04785156 Z " fill="#FFFFFF" transform="translate(266.140625,88.40234375)"/>
<path d="M0 0 C1.41832123 0.00273422 1.41832123 0.00273422 2.86529541 0.00552368 C17.04296406 0.05149964 30.94031259 0.46104248 44.875 3.3125 C45.76719238 3.49474121 46.65938477 3.67698242 47.57861328 3.86474609 C82.34249937 11.20249458 114.62087305 25.16680086 143.875 45.3125 C143.6584375 44.56226563 143.441875 43.81203125 143.21875 43.0390625 C139.59431697 29.71591515 139.59431697 29.71591515 140.875 23.3125 C143.40991894 20.18112955 144.94990393 19.48595551 148.875 18.75 C152.7680838 19.47995321 154.65505171 21.15641291 156.875 24.3125 C158.34683708 27.70251418 159.32802967 31.19205855 160.3125 34.75 C160.74647095 36.25916992 160.74647095 36.25916992 161.18920898 37.79882812 C161.79180223 39.90536156 162.38715564 42.01397825 162.97558594 44.12451172 C163.85791427 47.25193935 164.78630162 50.36221742 165.7265625 53.47265625 C166.29826201 55.41886394 166.86862669 57.36546435 167.4375 59.3125 C167.71327881 60.21282959 167.98905762 61.11315918 168.27319336 62.04077148 C169.77704446 67.35926927 170.4560944 71.13710867 167.875 76.3125 C162.88846028 80.17587342 157.05481983 79.86586035 151 80 C149.95803467 80.03053467 148.91606934 80.06106934 147.8425293 80.0925293 C145.64472795 80.15127996 143.44669823 80.20197176 141.24853516 80.24511719 C138.99537535 80.29012168 136.74239937 80.34549947 134.48974609 80.41113281 C131.22236379 80.50534305 127.95575317 80.56993403 124.6875 80.625 C123.67896973 80.65489014 122.67043945 80.68478027 121.63134766 80.71557617 C117.21899364 80.7505829 114.62473814 80.75612646 110.765625 78.47265625 C108.29126529 75.64554691 107.79983657 74.07067163 107.875 70.3125 C110.86736641 64.64837786 110.86736641 64.64837786 114.875 63.3125 C116.57367188 63.16472064 118.27677489 63.06502934 119.98046875 62.99609375 C120.96337891 62.95419922 121.94628906 62.91230469 122.95898438 62.86914062 C123.98314453 62.82982422 125.00730469 62.79050781 126.0625 62.75 C127.09826172 62.70681641 128.13402344 62.66363281 129.20117188 62.61914062 C131.7589819 62.51305634 134.31688845 62.41099854 136.875 62.3125 C85.86832293 25.30936458 23.92347309 11.19545961 -38.1796875 20.59082031 C-48.03509308 22.1801306 -57.58236047 24.39725627 -67.125 27.3125 C-67.7835498 27.50956543 -68.44209961 27.70663086 -69.12060547 27.90966797 C-91.01882429 34.53596195 -112.52795338 44.99929392 -131.125 58.3125 C-132.22539581 59.06680897 -133.32701893 59.81932982 -134.4296875 60.5703125 C-149.22764858 70.75532892 -162.44429144 82.67362198 -174.125 96.3125 C-174.96160156 97.25996094 -175.79820312 98.20742187 -176.66015625 99.18359375 C-183.11709204 106.56064577 -188.73082202 114.25342469 -193.98583984 122.52636719 C-195.03199302 124.1666708 -196.10274255 125.79121921 -197.17578125 127.4140625 C-212.08251836 150.53593529 -221.9006256 177.38850183 -227.125 204.3125 C-227.28194336 205.11397461 -227.43888672 205.91544922 -227.60058594 206.74121094 C-237.51269965 259.28607183 -228.04775641 317.24477284 -200.42578125 363.15625 C-198.82220811 367.04720225 -199.0758586 369.2762199 -200.125 373.3125 C-202.71303981 376.19631579 -204.32029549 377.1616179 -208.125 377.875 C-212.03230097 377.14238107 -213.74236815 375.32956296 -216.125 372.3125 C-218.23954242 368.97431943 -220.06767452 365.51231623 -221.875 362 C-222.39723145 360.98744141 -222.91946289 359.97488281 -223.45751953 358.93164062 C-238.52305049 329.03086808 -248.06434465 294.15483098 -248.36328125 260.5390625 C-248.3730751 259.62584732 -248.38286896 258.71263214 -248.39295959 257.77174377 C-248.56457188 237.61301361 -248.40789105 218.1037591 -244.125 198.3125 C-243.91069336 197.29542969 -243.69638672 196.27835938 -243.47558594 195.23046875 C-233.1974123 147.65464316 -209.21344802 107.38342279 -176.125 72.3125 C-175.25230469 71.38566406 -174.37960938 70.45882812 -173.48046875 69.50390625 C-167.08463568 62.90205806 -160.26929901 57.19332708 -152.93994141 51.68310547 C-151.15868202 50.33793595 -149.39723912 48.96980474 -147.63671875 47.59765625 C-105.83153928 15.46335059 -52.27973232 -0.20955987 0 0 Z " fill="#FFFFFF" transform="translate(256.125,7.6875)"/>
<path d="M0 0 C2.90767497 2.77817945 3.91969442 4.39636972 4.45410156 8.41333008 C4.42268066 10.32214966 4.42268066 10.32214966 4.390625 12.26953125 C4.38496521 12.95053391 4.37930542 13.63153656 4.37347412 14.33317566 C4.35120481 16.49368645 4.30103318 18.65249646 4.25 20.8125 C4.22992247 22.28317905 4.21167389 23.75388429 4.1953125 25.22460938 C4.15137326 28.8169525 4.08241456 32.40831006 4 36 C5.13091064 36.44025513 5.13091064 36.44025513 6.28466797 36.8894043 C9.70524055 38.28844985 12.90457713 40.01245311 16.125 41.8125 C16.74503906 42.14314453 17.36507813 42.47378906 18.00390625 42.81445312 C21.89531621 44.99447957 24.19568228 46.88906365 26 51 C25.92733979 54.5603504 25.38506043 56.43721938 23.375 59.375 C19.9966195 61.6865235 18.06729327 61.41038623 14 61 C10.84835637 59.72082049 7.98186898 58.04933977 5.0625 56.3125 C4.30259766 55.87744141 3.54269531 55.44238281 2.75976562 54.99414062 C0.49147617 53.68662963 -1.75490054 52.34686313 -4 51 C-4.76328613 50.5570459 -5.52657227 50.1140918 -6.31298828 49.65771484 C-7.03599121 49.22797363 -7.75899414 48.79823242 -8.50390625 48.35546875 C-9.15302979 47.97414795 -9.80215332 47.59282715 -10.47094727 47.19995117 C-12 46 -12 46 -13 43 C-13.12125228 40.09747761 -13.18816972 37.21973196 -13.203125 34.31640625 C-13.20882507 33.46449203 -13.21452515 32.61257782 -13.22039795 31.73484802 C-13.22984008 29.93351481 -13.23637881 28.13216438 -13.24023438 26.33081055 C-13.24995113 23.57635431 -13.28098592 20.82264087 -13.3125 18.06835938 C-13.31902924 16.31771276 -13.32428002 14.56706082 -13.328125 12.81640625 C-13.3404718 11.99338516 -13.3528186 11.17036407 -13.36553955 10.32240295 C-13.35205855 6.85984296 -13.32219205 4.60148417 -11.66699219 1.51147461 C-8.00971089 -1.80461041 -4.51063186 -1.10787449 0 0 Z " fill="#FFFFFF" transform="translate(341,359)"/>
<path d="M0 0 C0.80893707 -0.00807175 1.61787415 -0.01614349 2.45132446 -0.02445984 C4.16446795 -0.03829865 5.87763898 -0.04902172 7.59082031 -0.05688477 C10.20951574 -0.07410664 12.82695144 -0.11799354 15.4453125 -0.16210938 C17.10936571 -0.17223564 18.77342966 -0.18075195 20.4375 -0.1875 C21.21991058 -0.20500809 22.00232117 -0.22251617 22.80844116 -0.24055481 C26.36784788 -0.22636797 28.42649 -0.07924025 31.31884766 2.08129883 C33.31947237 4.89676862 33.78113691 6.78742749 33.8515625 10.23828125 C31.72112772 14.80349864 31.72112772 14.80349864 28.8515625 16.23828125 C26.1270031 16.37374316 23.42922487 16.45095721 20.703125 16.4765625 C19.89418793 16.48463425 19.08525085 16.49270599 18.25180054 16.50102234 C16.53865705 16.51486115 14.82548602 16.52558422 13.11230469 16.53344727 C10.49360926 16.55066914 7.87617356 16.59455604 5.2578125 16.63867188 C3.59375929 16.64879814 1.92969534 16.65731445 0.265625 16.6640625 C-0.51678558 16.68157059 -1.29919617 16.69907867 -2.10531616 16.71711731 C-5.66472288 16.70293047 -7.723365 16.55580275 -10.61572266 14.39526367 C-12.61634737 11.57979388 -13.07801191 9.68913501 -13.1484375 6.23828125 C-10.0880829 -0.31962147 -6.67087436 0.06265717 0 0 Z " fill="#FFFFFF" transform="translate(225.1484375,459.76171875)"/>
<path d="M0 0 C3.19763779 2.18785743 3.88264374 3.44522496 4.6875 7.25 C3.71266436 12.56728531 0.76801228 15.29166212 -3 19 C-3.66 19.66 -4.32 20.32 -5 21 C-8.05757892 21.56075289 -10.93891683 21.52739799 -14 21 C-16.96451693 18.5416201 -17.78109658 16.89551399 -18.6875 13.1875 C-17.42692045 7.3429948 -12.9715905 3.58688991 -8.4375 -0.0625 C-5.15407018 -1.32535762 -3.33540452 -1.0644908 0 0 Z " fill="#FFFFFF" transform="translate(297,435)"/>
<path d="M0 0 C3.375 2.0625 3.375 2.0625 5 5 C5.5625 8.5625 5.5625 8.5625 5 12 C2.78136971 14.90717073 1.48055071 15.83981643 -2 17 C-8.00591751 17.53753479 -12.82941935 17.44705377 -18 14 C-19.56935594 10.86128812 -19.35201103 8.46144178 -19 5 C-15.08244591 -2.0817324 -7.10135244 -1.04232261 0 0 Z " fill="#FFFFFF" transform="translate(278,391)"/>
<path d="M0 0 C3.04829729 1.29010335 3.75580186 2.89832065 5.0859375 5.8828125 C5.484375 8.8203125 5.484375 8.8203125 5.4609375 11.8828125 C5.46867187 12.8934375 5.47640625 13.9040625 5.484375 14.9453125 C5.02374971 18.34129504 4.21928088 20.20660942 2.0859375 22.8828125 C-0.90760339 24.14974179 -3.69832267 24.21508684 -6.9140625 23.8828125 C-9.9765625 22.3203125 -9.9765625 22.3203125 -11.9140625 18.8828125 C-12.81402343 12.64258754 -13.12105979 7.0242593 -9.9765625 1.4453125 C-6.29102672 -0.4350629 -4.03739939 -0.42716512 0 0 Z " fill="#FFFFFF" transform="translate(339.9140625,322.1171875)"/>
<path d="M0 0 C3.54696988 0.86703708 5.30527863 2.03700884 7.8125 4.6875 C9.15083614 7.86604833 8.9443116 9.28327775 7.875 12.5625 C4.5643489 17.57863803 0.66090682 22.07313774 -5.375 23.375 C-8.95690731 22.49942266 -10.68653384 21.40283469 -13.1875 18.6875 C-14.32899468 15.33435938 -14.52472906 13.56429557 -13.25 10.25 C-9.60061009 5.7159095 -5.8445052 1.26057955 0 0 Z " fill="#FFFFFF" transform="translate(385.1875,341.3125)"/>
<path d="M0 0 C4.43192051 1.57178576 8.91104865 5.50569106 11.015625 9.71484375 C11.51075181 14.08846389 11.50786366 16.03439619 8.890625 19.65234375 C6.015625 21.71484375 6.015625 21.71484375 3.265625 22.46484375 C-2.20066776 21.20339157 -7.2356396 17.46896831 -10.26171875 12.703125 C-11.4261592 9.4993402 -10.75373382 6.96982339 -9.984375 3.71484375 C-7.177377 0.05354201 -4.57366158 -0.70142289 0 0 Z " fill="#FFFFFF" transform="translate(289.984375,342.28515625)"/>
</svg>
