<?xml version="1.0" encoding="UTF-8"?>
<svg version="1.1" xmlns="http://www.w3.org/2000/svg" width="64" height="64">
<path d="M0 0 C0.81192163 3.75274011 1.08942923 7.15454314 1 11 C0.01 11 -0.98 11 -2 11 C-2.495 10.01 -2.495 10.01 -3 9 C-3.33 10.32 -3.66 11.64 -4 13 C-3.4225 13.226875 -2.845 13.45375 -2.25 13.6875 C0 15 0 15 1.75 17.5625 C4.25320212 20.2743023 4.55882794 20.28970615 8 20.5 C8.66 20.4896875 9.32 20.479375 10 20.46875 C13.24477049 21.33064216 14.21112534 23.23016638 16 26 C16.40989739 28.76974045 16.60463888 31.15842912 16.609375 33.92578125 C16.62591125 34.67337204 16.64244751 35.42096283 16.65948486 36.19120789 C16.70783923 38.56505652 16.72930636 40.93826522 16.75 43.3125 C16.77817043 44.92776635 16.80809937 46.54300306 16.83984375 48.15820312 C16.91359395 52.10541602 16.96324457 56.05227631 17 60 C6.98947303 60.73048892 -2.96027207 61.16223546 -13 61.13037109 C-15.00007699 61.12499979 -16.99992958 61.13037087 -19 61.13671875 C-28.36889329 61.14099913 -37.65888122 60.68164081 -47 60 C-46.95576334 55.24875389 -46.88584526 50.49882618 -46.79248047 45.74829102 C-46.76431814 44.13348911 -46.74308 42.51855057 -46.72900391 40.90356445 C-46.70750742 38.57692763 -46.66082789 36.25192523 -46.609375 33.92578125 C-46.60814636 33.20787918 -46.60691772 32.48997711 -46.60565186 31.75032043 C-46.50287836 28.20445121 -46.05178048 26.08568838 -44.20410156 23.02807617 C-41.4810441 20.52248929 -39.61755245 20.70575377 -36.03125 20.51171875 C-32.6623345 19.66301119 -31.18966948 17.22141266 -29.2265625 14.49609375 C-28.82179688 14.00238281 -28.41703125 13.50867188 -28 13 C-27.34 13 -26.68 13 -26 13 C-26 10.69 -26 8.38 -26 6 C-28.475 5.505 -28.475 5.505 -31 5 C-30.67 3.35 -30.34 1.7 -30 0 C-18.5546568 -3.53459128 -11.4453432 -3.53459128 0 0 Z M-25 2 C-24.10264564 4.35491634 -24.10264564 4.35491634 -20.9375 5.1875 C-15.93393412 6.49501619 -11.28419351 5.97078224 -6.5 3.9375 C-6.005 3.628125 -5.51 3.31875 -5 3 C-11.15970199 -1.10646799 -18.28645674 -0.48109207 -25 2 Z M-23 7 C-23 8.98 -23 10.96 -23 13 C-17.72 13 -12.44 13 -7 13 C-7 11.02 -7 9.04 -7 7 C-8.10408203 7.12568359 -8.10408203 7.12568359 -9.23046875 7.25390625 C-10.69419922 7.40666016 -10.69419922 7.40666016 -12.1875 7.5625 C-13.15042969 7.66691406 -14.11335938 7.77132813 -15.10546875 7.87890625 C-17.94233377 7.99758751 -20.25423671 7.67765639 -23 7 Z M-27 16 C-27.33 16.99 -27.66 17.98 -28 19 C-19.42 19 -10.84 19 -2 19 C-2.66 18.01 -3.32 17.02 -4 16 C-6.42099355 15.5835465 -6.42099355 15.5835465 -9.2265625 15.70703125 C-10.7734375 15.7215332 -10.7734375 15.7215332 -12.3515625 15.73632812 C-13.43179688 15.76146484 -14.51203125 15.78660156 -15.625 15.8125 C-16.71296875 15.82603516 -17.8009375 15.83957031 -18.921875 15.85351562 C-21.61507409 15.88895246 -24.30729374 15.93835669 -27 16 Z M-31 22 C-31 22.33 -31 22.66 -31 23 C-20.44 23 -9.88 23 1 23 C1 22.67 1 22.34 1 22 C-9.56 22 -20.12 22 -31 22 Z M-41 24 C-41.33 24.99 -41.66 25.98 -42 27 C-38.37 27 -34.74 27 -31 27 C-33.72894302 23.60077072 -33.72894302 23.60077072 -37.6875 23.8125 C-38.780625 23.874375 -39.87375 23.93625 -41 24 Z M1 27 C4.63 27 8.26 27 12 27 C11.67 26.01 11.34 25.02 11 24 C5.34301157 23.51566613 5.34301157 23.51566613 1 27 Z M-28 26 C-28 26.33 -28 26.66 -28 27 C-19.42 27 -10.84 27 -2 27 C-2 26.67 -2 26.34 -2 26 C-10.58 26 -19.16 26 -28 26 Z M-43 31 C-43 38.26 -43 45.52 -43 53 C-38.38 53 -33.76 53 -29 53 C-29 45.74 -29 38.48 -29 31 C-33.62 31 -38.24 31 -43 31 Z M-26 31 C-26 38.26 -26 45.52 -26 53 C-24.35 53 -22.7 53 -21 53 C-20.67 48.71 -20.34 44.42 -20 40 C-16.7 40 -13.4 40 -10 40 C-9.67 44.29 -9.34 48.58 -9 53 C-7.35 53 -5.7 53 -4 53 C-4 45.74 -4 38.48 -4 31 C-11.26 31 -18.52 31 -26 31 Z M-1 31 C-1 38.26 -1 45.52 -1 53 C3.62 53 8.24 53 13 53 C13 45.74 13 38.48 13 31 C8.38 31 3.76 31 -1 31 Z M-18 42 C-18 45.63 -18 49.26 -18 53 C-16.02 53 -14.04 53 -12 53 C-12 49.37 -12 45.74 -12 42 C-13.98 42 -15.96 42 -18 42 Z M-44 56 C-44 56.33 -44 56.66 -44 57 C-39.71 57 -35.42 57 -31 57 C-31 56.67 -31 56.34 -31 56 C-35.29 56 -39.58 56 -44 56 Z M-28 56 C-28 56.66 -28 57.32 -28 58 C-19.42 58 -10.84 58 -2 58 C-2 57.34 -2 56.68 -2 56 C-10.58 56 -19.16 56 -28 56 Z M1 56 C1 56.33 1 56.66 1 57 C5.29 57 9.58 57 14 57 C14 56.67 14 56.34 14 56 C9.71 56 5.42 56 1 56 Z " fill="#FFFFFF" transform="translate(47,3)"/>
<path d="M0 0 C0.99 0 1.98 0 3 0 C3 1.65 3 3.3 3 5 C2.01 5 1.02 5 0 5 C0 3.35 0 1.7 0 0 Z " fill="#FFFFFF" transform="translate(55,49)"/>
<path d="M0 0 C0.99 0 1.98 0 3 0 C3 1.65 3 3.3 3 5 C2.01 5 1.02 5 0 5 C0 3.35 0 1.7 0 0 Z " fill="#FFFFFF" transform="translate(6,49)"/>
<path d="M0 0 C0.99 0 1.98 0 3 0 C3 1.65 3 3.3 3 5 C2.01 5 1.02 5 0 5 C0 3.35 0 1.7 0 0 Z " fill="#FFFFFF" transform="translate(55,42)"/>
<path d="M0 0 C0.99 0 1.98 0 3 0 C3 1.65 3 3.3 3 5 C2.01 5 1.02 5 0 5 C0 3.35 0 1.7 0 0 Z " fill="#FFFFFF" transform="translate(6,42)"/>
<path d="M0 0 C0.99 0 1.98 0 3 0 C3 1.65 3 3.3 3 5 C2.01 5 1.02 5 0 5 C0 3.35 0 1.7 0 0 Z " fill="#FFFFFF" transform="translate(55,36)"/>
<path d="M0 0 C0.99 0 1.98 0 3 0 C3 1.65 3 3.3 3 5 C2.01 5 1.02 5 0 5 C0 3.35 0 1.7 0 0 Z " fill="#FFFFFF" transform="translate(12,36)"/>
<path d="M0 0 C0.99 0 1.98 0 3 0 C3 1.65 3 3.3 3 5 C2.01 5 1.02 5 0 5 C0 3.35 0 1.7 0 0 Z " fill="#FFFFFF" transform="translate(6,36)"/>
<path d="M0 0 C0.99 0 1.98 0 3 0 C3 1.65 3 3.3 3 5 C2.01 5 1.02 5 0 5 C0 3.35 0 1.7 0 0 Z " fill="#FFFFFF" transform="translate(34,35)"/>
<path d="M0 0 C0.99 0 1.98 0 3 0 C3 1.65 3 3.3 3 5 C2.01 5 1.02 5 0 5 C0 3.35 0 1.7 0 0 Z " fill="#FFFFFF" transform="translate(27,35)"/>
<path d="M0 0 C0.99 0 1.98 0 3 0 C2.67 1.65 2.34 3.3 2 5 C1.34 5 0.68 5 0 5 C0 3.35 0 1.7 0 0 Z " fill="#FFFFFF" transform="translate(49,49)"/>
<path d="M0 0 C0.99 0 1.98 0 3 0 C3 1.65 3 3.3 3 5 C2.01 4.67 1.02 4.34 0 4 C0 2.68 0 1.36 0 0 Z " fill="#FFFFFF" transform="translate(12,49)"/>
<path d="M0 0 C0.99 0.33 1.98 0.66 3 1 C3 2.32 3 3.64 3 5 C2.01 5 1.02 5 0 5 C0 3.35 0 1.7 0 0 Z " fill="#FFFFFF" transform="translate(49,42)"/>
<path d="M0 0 C0.66 0 1.32 0 2 0 C2 1.65 2 3.3 2 5 C1.01 5 0.02 5 -1 5 C-0.67 3.35 -0.34 1.7 0 0 Z " fill="#FFFFFF" transform="translate(13,42)"/>
<path d="M0 0 C0.99 0 1.98 0 3 0 C2.67 1.65 2.34 3.3 2 5 C1.34 5 0.68 5 0 5 C0 3.35 0 1.7 0 0 Z " fill="#FFFFFF" transform="translate(49,36)"/>
</svg>
