<?xml version="1.0" encoding="UTF-8"?>
<svg version="1.1" xmlns="http://www.w3.org/2000/svg" width="64" height="64">
<path d="M0 0 C1.0209375 -0.01160156 1.0209375 -0.01160156 2.0625 -0.0234375 C4.65979658 0.51068397 5.49432028 1.19037881 7 3.375 C7.3984375 6.15234375 7.3984375 6.15234375 7.375 9.3125 C7.38660156 10.87291016 7.38660156 10.87291016 7.3984375 12.46484375 C6.96171577 15.65462499 6.14046092 17.02502307 4 19.375 C4.886875 19.519375 5.77375 19.66375 6.6875 19.8125 C8.6129433 20.13946207 10.53450723 20.49834782 12.4375 20.9375 C15.15342671 21.49783614 15.15342671 21.49783614 18.5625 21.1875 C22 21.375 22 21.375 24.4375 22.75 C26.86023925 26.82020195 26.64905122 30.75703789 26 35.375 C24.5 38.5 24.5 38.5 23 40.375 C24.11375 40.66375 25.2275 40.9525 26.375 41.25 C30 42.375 30 42.375 32 44.375 C32.125 48 32.125 48 32 51.375 C31.34 51.375 30.68 51.375 30 51.375 C29.505 48.405 29.505 48.405 29 45.375 C24.30012528 44.52902255 20.67342118 44.52528706 16 45.375 C15.01 45.045 14.02 44.715 13 44.375 C10.83284443 45.24983915 10.83284443 45.24983915 9 46.375 C9.639375 46.601875 10.27875 46.82875 10.9375 47.0625 C13 48.375 13 48.375 13.75 51 C13.8325 51.78375 13.915 52.5675 14 53.375 C17.3 53.375 20.6 53.375 24 53.375 C24.33 52.385 24.66 51.395 25 50.375 C25.66 50.375 26.32 50.375 27 50.375 C27 51.365 27 52.355 27 53.375 C29.475 52.88 29.475 52.88 32 52.375 C32 53.695 32 55.015 32 56.375 C26.06 56.375 20.12 56.375 14 56.375 C14 57.365 14 58.355 14 59.375 C13.01 59.375 12.02 59.375 11 59.375 C10.9175 58.09625 10.835 56.8175 10.75 55.5 C10.38394129 52.28601775 10.38394129 52.28601775 8.4375 49.8125 C5.41675883 49.27031569 2.90175472 49.66554738 -0.109375 50.15625 C-2.28742405 50.40825567 -3.89445519 49.9013862 -6 49.375 C-8.14952633 49.90221797 -8.14952633 49.90221797 -10 51.375 C-10.70373017 54.02287088 -10.70373017 54.02287088 -10.75 57 C-10.80671875 58.00289062 -10.8634375 59.00578125 -10.921875 60.0390625 C-10.94765625 60.80992188 -10.9734375 61.58078125 -11 62.375 C-10.34 62.375 -9.68 62.375 -9 62.375 C-9 60.395 -9 58.415 -9 56.375 C-7.515 55.88 -7.515 55.88 -6 55.375 C-6 57.685 -6 59.995 -6 62.375 C-2.04 62.375 1.92 62.375 6 62.375 C6 60.065 6 57.755 6 55.375 C6.99 55.705 7.98 56.035 9 56.375 C9 58.355 9 60.335 9 62.375 C10.32 61.715 11.64 61.055 13 60.375 C13.495 62.355 13.495 62.355 14 64.375 C4.76 64.375 -4.48 64.375 -14 64.375 C-14 61.735 -14 59.095 -14 56.375 C-19.94 56.375 -25.88 56.375 -32 56.375 C-32 55.055 -32 53.735 -32 52.375 C-30.35 52.705 -28.7 53.035 -27 53.375 C-27 52.385 -27 51.395 -27 50.375 C-26.01 50.705 -25.02 51.035 -24 51.375 C-24 52.035 -24 52.695 -24 53.375 C-20.7 53.375 -17.4 53.375 -14 53.375 C-13.87625 52.199375 -13.87625 52.199375 -13.75 51 C-13 48.375 -13 48.375 -10.9375 47.0625 C-9.9784375 46.7221875 -9.9784375 46.7221875 -9 46.375 C-13.22728415 44.70374813 -15.61529892 44.33651816 -20 45.375 C-21.33333333 45.04166667 -22.66666667 44.70833333 -24 44.375 C-26.68149993 44.76067131 -26.68149993 44.76067131 -29 45.375 C-29.33 47.355 -29.66 49.335 -30 51.375 C-30.66 51.375 -31.32 51.375 -32 51.375 C-32.25 48.0625 -32.25 48.0625 -32 44.375 C-29.41126058 41.49862287 -26.76085859 40.89734147 -23 40.375 C-23.7425 39.446875 -23.7425 39.446875 -24.5 38.5 C-26.61714462 34.08928204 -26.68960138 30.18598374 -26 25.375 C-24.625 22.75 -24.625 22.75 -22 21.375 C-19.44556533 21.20269412 -16.96362547 21.25436211 -14.40625 21.3671875 C-11.54739844 21.37646949 -9.55471473 20.61364956 -7 19.375 C-6.01 19.375 -5.02 19.375 -4 19.375 C-4.48726562 18.84003906 -4.97453125 18.30507813 -5.4765625 17.75390625 C-7.3953306 14.75767606 -7.4012738 12.84632548 -7.375 9.3125 C-7.38273437 8.26964844 -7.39046875 7.22679687 -7.3984375 6.15234375 C-7 3.375 -7 3.375 -5.7265625 1.52734375 C-3.6550965 0.14480422 -2.47598951 -0.02813624 0 0 Z M-3.125 4 C-5.23118579 6.27539486 -5.23118579 6.27539486 -5.5 9.375 C-4.90092877 12.9694274 -3.7822335 14.11443528 -1 16.375 C2.72614153 15.25645414 2.72614153 15.25645414 5 12.375 C5.4069579 8.63098728 5.49904726 7.00712653 3.125 4 C0.26388535 1.8120888 -0.26388535 1.8120888 -3.125 4 Z M-1 19.375 C-1 20.035 -1 20.695 -1 21.375 C-0.34 21.375 0.32 21.375 1 21.375 C1 20.715 1 20.055 1 19.375 C0.34 19.375 -0.32 19.375 -1 19.375 Z M-8.75 23.375 C-11.41862395 25.28482945 -11.41862395 25.28482945 -11.3125 29.0625 C-11.209375 30.155625 -11.10625 31.24875 -11 32.375 C-9.68 32.375 -8.36 32.375 -7 32.375 C-6.5875 31.55 -6.175 30.725 -5.75 29.875 C-4 27.375 -4 27.375 -2.140625 26.8671875 C0.07997251 26.74562194 1.85193468 26.78834351 4 27.375 C5.75 29.875 5.75 29.875 7 32.375 C8.32 32.375 9.64 32.375 11 32.375 C11.41725678 29.00099422 11.41725678 29.00099422 11 25.375 C9.0745356 23.1513932 9.0745356 23.1513932 6 22.375 C3.27875093 22.49354946 0.69997261 22.94643292 -2 23.375 C-2.721875 23.16875 -3.44375 22.9625 -4.1875 22.75 C-6.18767271 22.17076882 -6.18767271 22.17076882 -8.75 23.375 Z M-19 23.375 C-21.15811388 24.32229537 -21.15811388 24.32229537 -23 26.375 C-23.72218119 30.02391547 -23.69510789 33.22807198 -21.75 36.4375 C-20.02526579 37.56795223 -20.02526579 37.56795223 -17.9375 37.1875 C-15.81287474 36.44029664 -15.81287474 36.44029664 -14 34.375 C-13.52934839 30.31677392 -13.52934839 30.31677392 -14 26.375 C-16.3549963 24.29283124 -16.3549963 24.29283124 -19 23.375 Z M18 23.375 C15.84188612 24.32229537 15.84188612 24.32229537 14 26.375 C13.27781881 30.02391547 13.30489211 33.22807198 15.25 36.4375 C16.97473421 37.56795223 16.97473421 37.56795223 19.0625 37.1875 C21.18712526 36.44029664 21.18712526 36.44029664 23 34.375 C23.47065161 30.31677392 23.47065161 30.31677392 23 26.375 C20.6450037 24.29283124 20.6450037 24.29283124 18 23.375 Z M-3 29.375 C-5.32749345 32.86624017 -5.50299316 34.26722251 -5 38.375 C-3.12498069 40.75219693 -3.12498069 40.75219693 -1 42.375 C2.72614153 41.25645414 2.72614153 41.25645414 5 38.375 C5.25860135 34.32357881 5.30441554 32.83162331 3 29.375 C0 28.875 0 28.875 -3 29.375 Z M-12 35.375 C-12.66 37.025 -13.32 38.675 -14 40.375 C-13.44570313 40.65214844 -12.89140625 40.92929687 -12.3203125 41.21484375 C-9.546875 42.6015625 -6.7734375 43.98828125 -4 45.375 C-4.309375 44.83875 -4.61875 44.3025 -4.9375 43.75 C-6.17827439 40.9765043 -6.5909675 38.37457163 -7 35.375 C-8.65 35.375 -10.3 35.375 -12 35.375 Z M7 35.375 C5.48046291 40.29082077 5.48046291 40.29082077 5 45.375 C5.8353125 44.694375 5.8353125 44.694375 6.6875 44 C9.05313439 42.33766232 11.29015658 41.35355457 14 40.375 C13.34 38.725 12.68 37.075 12 35.375 C10.35 35.375 8.7 35.375 7 35.375 Z M-20 40.375 C-19.34 41.035 -18.68 41.695 -18 42.375 C-17.67 41.715 -17.34 41.055 -17 40.375 C-17.99 40.375 -18.98 40.375 -20 40.375 Z M17 40.375 C17.66 41.035 18.32 41.695 19 42.375 C19.33 41.715 19.66 41.055 20 40.375 C19.01 40.375 18.02 40.375 17 40.375 Z M-1 45.375 C-1 46.035 -1 46.695 -1 47.375 C-0.34 47.375 0.32 47.375 1 47.375 C1 46.715 1 46.055 1 45.375 C0.34 45.375 -0.32 45.375 -1 45.375 Z " fill="#FFFFFF" transform="translate(32,-0.375)"/>
</svg>
