<?xml version="1.0" encoding="UTF-8"?>
<svg version="1.1" xmlns="http://www.w3.org/2000/svg" width="512" height="512">
<path d="M0 0 C1.20011719 0.5465625 2.40023437 1.093125 3.63671875 1.65625 C15.62040972 7.27214603 25.44996707 14.92175014 35 24 C35.49177734 24.4645459 35.98355469 24.9290918 36.49023438 25.40771484 C60.53667004 48.25484585 73.79962058 79.66238637 75.02929688 112.78515625 C75.61381652 147.57799215 62.5739813 179.87554741 38.5390625 204.85961914 C30.91971502 212.60474281 23.42046707 219.49938714 14 225 C13.31389648 225.40653809 12.62779297 225.81307617 11.92089844 226.23193359 C-17.1644624 243.24591918 -52.30048149 248.63718722 -85.0625 240.06738281 C-107.33915976 233.81016697 -124.96759621 223.54492899 -142 208 C-142.82242188 207.26136719 -143.64484375 206.52273438 -144.4921875 205.76171875 C-159.64686523 191.4429752 -170.68620906 172.08192565 -176 152 C-176.18933105 151.28650391 -176.37866211 150.57300781 -176.57373047 149.83789062 C-185.5807757 114.66100851 -179.91456195 79.52635906 -161.69140625 48.2890625 C-157.79770297 41.90163913 -153.13080442 36.41676213 -148 31 C-147.45827148 30.41734375 -146.91654297 29.8346875 -146.35839844 29.234375 C-138.57942696 20.91785038 -130.69882262 14.042088 -121 8 C-120.06027344 7.38769531 -119.12054688 6.77539062 -118.15234375 6.14453125 C-83.11132964 -15.6898283 -37.12579394 -17.31122735 0 0 Z M-81 7 C-81.68932617 7.19335938 -82.37865234 7.38671875 -83.08886719 7.5859375 C-99.62639905 12.30886418 -114.1454067 19.4622187 -127 31 C-127.74121094 31.5878125 -128.48242188 32.175625 -129.24609375 32.78125 C-150.18774974 49.8033447 -162.77371793 78.10066671 -165.50415039 104.45288086 C-166.27241998 113.36183642 -165.84696641 122.11323684 -165 131 C-164.90976563 132.0415625 -164.81953125 133.083125 -164.7265625 134.15625 C-161.14511706 162.48946278 -143.62687059 188.99400231 -121.40234375 206.23974609 C-97.45563933 224.33173131 -67.63118489 231.70775393 -38 228 C-16.13480302 224.71224045 4.28828334 215.49845668 21 201 C22.06203276 200.16607128 23.12447167 199.33265927 24.1875 198.5 C45.7886592 179.2989696 57.86700018 150.42161753 59.75 122 C61.21424631 91.91612391 51.10806844 65.04890058 32 42 C31.51402344 41.3503125 31.02804687 40.700625 30.52734375 40.03125 C15.07633388 19.99691304 -12.3700823 9.03003043 -36.359375 4.34375 C-51.15556551 2.9466848 -66.6578741 2.83920743 -81 7 Z " fill="#FFFFFF" transform="translate(309,140)"/>
<path d="M0 0 C11.10347083 9.3309288 18.75578706 23.06594708 20.93359375 37.46484375 C21.33250976 42.22451284 21.51022125 46.96719517 21.59375 51.7421875 C21.61993408 52.65863037 21.64611816 53.57507324 21.6730957 54.51928711 C21.68378762 58.82179314 21.62623298 61.20817181 19.3203125 64.9375 C16.35754083 67.65796321 14.79138322 67.9929796 10.87382507 68.00762939 C9.50482559 68.01619461 9.50482559 68.01619461 8.10816956 68.02493286 C7.10398483 68.02605072 6.09980011 68.02716858 5.06518555 68.02832031 C3.48208588 68.03576767 3.48208588 68.03576767 1.86700439 68.04336548 C-1.63684737 68.05801298 -5.14065385 68.06479356 -8.64453125 68.0703125 C-11.07350161 68.07606199 -13.50247194 68.08181974 -15.93144226 68.08758545 C-21.03006197 68.09810292 -26.12866588 68.10394065 -31.22729492 68.10742188 C-37.76452505 68.11290698 -44.30154694 68.13693243 -50.83871174 68.16539383 C-55.85811475 68.18400661 -60.87746748 68.1892251 -65.89690208 68.19075775 C-68.30707118 68.19378807 -70.71723932 68.20182928 -73.12737465 68.21494293 C-76.49824538 68.231974 -79.8686058 68.23013008 -83.23950195 68.22363281 C-84.23761398 68.2328476 -85.23572601 68.24206238 -86.26408386 68.2515564 C-94.84656621 68.19966646 -94.84656621 68.19966646 -98.78125 64.8671875 C-100.8535273 61.75877155 -101.04267266 61.01088318 -101.08203125 57.47265625 C-101.09169922 56.60664795 -101.10136719 55.74063965 -101.11132812 54.84838867 C-100.98726897 35.13159802 -97.37208999 17.88687059 -83.28125 3.3671875 C-59.65690501 -19.6218702 -25.36179024 -19.44878859 0 0 Z M-68.78125 10.8671875 C-69.6475 11.4446875 -70.51375 12.0221875 -71.40625 12.6171875 C-79.20129602 20.00196794 -83.67348756 29.42550723 -85.78125 39.8671875 C-85.78125 44.1571875 -85.78125 48.4471875 -85.78125 52.8671875 C-55.42125 52.8671875 -25.06125 52.8671875 6.21875 52.8671875 C6.21875 37.35697766 4.07802261 25.39131353 -6.78125 13.8671875 C-17.57084364 4.30515242 -28.75232891 0.45546207 -43.01171875 0.58984375 C-52.90421244 1.31768525 -60.99255056 4.88599215 -68.78125 10.8671875 Z " fill="#FFFFFF" transform="translate(295.78125,276.1328125)"/>
<path d="M0 0 C1.875 1.125 1.875 1.125 3 3 C3.625 6.1875 3.625 6.1875 3 10 C-2.50864404 18.12949705 -10.86758754 24.99388361 -17.80859375 31.90625 C-19.14402327 33.2398113 -20.47922985 34.57359588 -21.81422424 35.90759277 C-25.30539128 39.39496648 -28.79955234 42.8793249 -32.29437256 46.36303711 C-35.86930632 49.92768783 -39.44136294 53.49521917 -43.01367188 57.0625 C-50.00632174 64.04446878 -57.00214201 71.02325147 -64 78 C-63.4097554 78.00586624 -62.8195108 78.01173248 -62.21138 78.01777649 C-56.06288736 78.08175668 -49.9149159 78.1661884 -43.7668457 78.26245117 C-41.47297033 78.29568634 -39.17901346 78.32372264 -36.88500977 78.34643555 C-33.58574727 78.38000674 -30.2872307 78.43232535 -26.98828125 78.48828125 C-25.96414627 78.49467117 -24.94001129 78.5010611 -23.88484192 78.50764465 C-18.28520456 78.62302877 -14.16764776 78.83235224 -10 83 C-9.52875175 90.30434783 -9.52875175 90.30434783 -11.3125 92.9375 C-15.00257961 95.26088346 -18.35134393 95.1370661 -22.59521484 95.16113281 C-23.59331932 95.16858017 -23.59331932 95.16858017 -24.61158752 95.17617798 C-26.8113814 95.19077477 -29.01110317 95.19759727 -31.2109375 95.203125 C-32.74166872 95.20887831 -34.27239992 95.21463602 -35.8031311 95.22039795 C-39.01263769 95.23090074 -42.22211928 95.23674819 -45.43164062 95.24023438 C-49.53968257 95.24571894 -53.64739304 95.26974894 -57.75533104 95.29820633 C-60.91752074 95.31685016 -64.07963086 95.32203922 -67.24187088 95.32357025 C-68.75610797 95.32659316 -70.27034378 95.33460953 -71.78452682 95.34775543 C-73.90527166 95.36485381 -76.02520987 95.36292704 -78.14599609 95.35644531 C-79.35162201 95.36009094 -80.55724792 95.36373657 -81.79940796 95.36749268 C-85.33912533 94.96106156 -87.17760728 94.13960573 -90 92 C-92.45039708 88.32440438 -92.26399915 86.49921015 -92.29052734 82.11352539 C-92.29724457 81.4172554 -92.30396179 80.72098541 -92.31088257 80.00361633 C-92.32988325 77.70155709 -92.33378763 75.39978902 -92.3359375 73.09765625 C-92.34236358 71.49726745 -92.34909179 69.89687984 -92.35610962 68.29649353 C-92.36808724 64.94153113 -92.37178991 61.58667173 -92.37060547 58.23168945 C-92.37040215 53.93285136 -92.39771468 49.63467342 -92.43214989 45.33599186 C-92.45438728 42.03056301 -92.45844401 38.7252939 -92.45738602 35.4197979 C-92.45974635 33.83495239 -92.46859424 32.25010277 -92.48405075 30.66533089 C-92.50364979 28.44837312 -92.49789847 26.23285004 -92.48583984 24.01586914 C-92.4901149 22.12415733 -92.4901149 22.12415733 -92.49447632 20.19422913 C-92 17 -92 17 -90.18838501 14.59275818 C-86.99284435 12.26696838 -84.85066154 12.44990549 -81 13 C-78.4684928 14.98847051 -77.17467151 16.19923909 -76.48101807 19.37921143 C-76.47213562 20.25857361 -76.46325317 21.13793579 -76.45410156 22.04394531 C-76.43438293 23.04468079 -76.41466431 24.04541626 -76.39434814 25.07647705 C-76.39311951 26.14952087 -76.39189087 27.2225647 -76.390625 28.328125 C-76.36582062 29.98433868 -76.36582062 29.98433868 -76.34051514 31.67401123 C-76.29194374 35.19939689 -76.2706431 38.72435089 -76.25 42.25 C-76.2218481 44.64064682 -76.19192178 47.03127346 -76.16015625 49.421875 C-76.08618231 55.2811714 -76.03459335 61.14034594 -76 67 C-75.18202942 66.1775882 -74.36405884 65.35517639 -73.52130127 64.50784302 C-65.81652426 56.76254353 -58.10648758 49.02251448 -50.39125443 41.28763008 C-46.42483716 37.31077036 -42.46030401 33.3320694 -38.5 29.34912109 C-34.67888155 25.50629101 -30.85291521 21.66835007 -27.02352142 17.83376694 C-25.56252646 16.36907322 -24.10329457 14.90261873 -22.64585114 13.43439102 C-20.60608865 11.3801362 -18.56017874 9.33219988 -16.51269531 7.28564453 C-15.90992767 6.67568634 -15.30716003 6.06572815 -14.68612671 5.43728638 C-13.84487747 4.60016113 -13.84487747 4.60016113 -12.9866333 3.74612427 C-12.50361378 3.26126116 -12.02059425 2.77639805 -11.52293777 2.27684212 C-7.61100473 -1.00295102 -4.93320425 -1.3645033 0 0 Z " fill="#FFFFFF" transform="translate(140,369)"/>
<path d="M0 0 C0.70631561 -0.00730133 1.41263123 -0.01460266 2.14035034 -0.02212524 C4.46492017 -0.03828091 6.78667622 -0.01117824 9.11108398 0.01806641 C10.73103331 0.01910424 12.35098517 0.0180664 13.97093201 0.01504517 C17.36137635 0.01522435 20.7508669 0.03602703 24.14111328 0.07226562 C28.48486789 0.11767853 32.82723201 0.11872001 37.17115879 0.10523033 C40.51442304 0.09854521 43.8573707 0.11182012 47.20057487 0.1314888 C48.80212688 0.13918101 50.40371412 0.14149409 52.00528145 0.13831711 C54.24378617 0.13757455 56.48051278 0.16283997 58.71875 0.1953125 C59.99162369 0.20452728 61.26449738 0.21374207 62.57594299 0.22323608 C66.35636207 0.8356144 67.56316591 1.67695104 69.79467773 4.74462891 C70.29467773 8.24462891 70.29467773 8.24462891 69.79467773 11.74462891 C67.80620722 14.27613611 66.59543864 15.5699574 63.41546631 16.26361084 C62.53610413 16.27249329 61.65674194 16.28137573 60.75073242 16.29052734 C59.24962921 16.32010529 59.24962921 16.32010529 57.71820068 16.35028076 C56.10863495 16.35212372 56.10863495 16.35212372 54.46655273 16.35400391 C53.36241028 16.37054016 52.25826782 16.38707642 51.1206665 16.40411377 C47.59528084 16.45268517 44.07032684 16.47398581 40.54467773 16.49462891 C38.15403091 16.52278081 35.76340427 16.55270713 33.37280273 16.58447266 C27.51350634 16.6584466 21.6543318 16.71003556 15.79467773 16.74462891 C16.61708954 17.56259949 17.43950134 18.38057007 18.28683472 19.22332764 C26.0321342 26.92810465 33.77216325 34.63814133 41.50704765 42.35337448 C45.48390737 46.31979174 49.46260834 50.2843249 53.44555664 54.24462891 C57.28838673 58.06574736 61.12632767 61.8917137 64.9609108 65.72110748 C66.42560451 67.18210244 67.89205901 68.64133434 69.36028671 70.09877777 C71.41454153 72.13854025 73.46247785 74.18445017 75.5090332 76.23193359 C76.11899139 76.83470123 76.72894958 77.43746887 77.35739136 78.0585022 C77.91547485 78.61933502 78.47355835 79.18016785 79.04855347 79.75799561 C79.53341658 80.24101513 80.01827969 80.72403465 80.51783562 81.22169113 C82.93714485 84.10729255 83.83933109 86.01529077 83.60717773 89.80712891 C82.39671855 94.18340442 82.39671855 94.18340442 79.79467773 95.74462891 C76.60717773 96.36962891 76.60717773 96.36962891 72.79467773 95.74462891 C64.66518068 90.23598486 57.80079413 81.87704137 50.88842773 74.93603516 C49.55486644 73.60060563 48.22108185 72.26539906 46.88708496 70.93040466 C43.39971126 67.43923762 39.91535283 63.94507656 36.43164062 60.45025635 C32.8669899 56.87532259 29.29945857 53.30326597 25.73217773 49.73095703 C18.75020895 42.73830717 11.77142626 35.74248689 4.79467773 28.74462891 C4.79325272 29.33265289 4.7918277 29.92067688 4.7903595 30.52651978 C4.77063904 36.65910197 4.71631524 42.79069195 4.64208984 48.92285156 C4.61892464 51.20988847 4.60451762 53.49703183 4.59912109 55.78417969 C4.58982116 59.07635731 4.54880499 62.36686389 4.50170898 65.65869141 C4.50760796 67.18715195 4.50760796 67.18715195 4.5136261 68.74649048 C4.4202563 73.31225193 4.33453289 76.71603491 1.43798828 80.390625 C-1.20532227 82.74462891 -1.20532227 82.74462891 -4.20532227 83.49462891 C-8.23029423 82.48838591 -10.12606776 80.19050387 -12.20532227 76.74462891 C-12.84024048 73.40600586 -12.84024048 73.40600586 -12.85229492 69.73291016 C-12.86543732 68.72192764 -12.86543732 68.72192764 -12.87884521 67.69052124 C-12.90072178 65.47872136 -12.88633164 63.26894648 -12.86938477 61.05712891 C-12.87275636 59.51065693 -12.87761184 57.96418755 -12.88388062 56.41772461 C-12.89123592 53.18301056 -12.88059091 49.94898878 -12.85717773 46.71435547 C-12.82868943 42.57805782 -12.84510081 38.44338236 -12.87504005 34.30714417 C-12.89315018 31.1156401 -12.88733829 27.92451758 -12.87440109 24.73300171 C-12.87107727 23.20844325 -12.87511806 21.68384961 -12.88679886 20.15933228 C-12.89957066 18.02407749 -12.88004994 15.8914107 -12.85229492 13.75634766 C-12.84831696 12.54422607 -12.84433899 11.33210449 -12.84024048 10.08325195 C-11.39902616 2.5048407 -7.37669066 -0.00729086 0 0 Z " fill="#FFFFFF" transform="translate(60.205322265625,47.25537109375)"/>
<path d="M0 0 C2.53782934 1.83194687 4.65493643 4.0226282 6.83154297 6.26391602 C7.81309105 7.2443689 7.81309105 7.2443689 8.81446838 8.24462891 C10.9691089 10.40274594 13.10550973 12.57801568 15.2421875 14.75390625 C16.73467485 16.25572137 18.22827177 17.75643457 19.72293091 19.25608826 C23.64999279 23.2022222 27.56180712 27.16314103 31.47064209 31.12731934 C35.46352066 35.17138475 39.47062699 39.2012973 43.4765625 43.23242188 C51.3317042 51.1411551 59.17081173 59.06557942 67 67 C67.00142502 66.41197601 67.00285004 65.82395203 67.00431824 65.21810913 C67.0240387 59.08552694 67.07836249 52.95393695 67.15258789 46.82177734 C67.17575309 44.53474044 67.19016011 42.24759708 67.19555664 39.96044922 C67.20485658 36.6682716 67.24587274 33.37776501 67.29296875 30.0859375 C67.2890361 29.06696381 67.28510345 28.04799011 67.28105164 26.99813843 C67.37443395 22.43176483 67.46415925 19.02302878 70.3527832 15.34228516 C73 13 73 13 76.0625 12.4375 C79.24613036 13.04713135 80.72091179 13.72091179 83 16 C84.1395918 19.41877541 84.1479464 22.08082322 84.17700195 25.68701172 C84.18357315 26.36216827 84.19014435 27.03732483 84.19691467 27.73294067 C84.21661081 29.96519079 84.22830091 32.19737381 84.23828125 34.4296875 C84.24235678 35.19297489 84.2464323 35.95626228 84.25063133 36.7426796 C84.27147466 40.78141254 84.28578482 44.82011166 84.29516602 48.85888672 C84.30623724 53.0275581 84.34064972 57.1956967 84.38033772 61.36417961 C84.40649178 64.57269274 84.41485665 67.78107852 84.41844749 70.98968887 C84.42331529 72.52627289 84.43493489 74.06285115 84.45348549 75.5993309 C84.47785674 77.75138303 84.47691683 79.9020511 84.4699707 82.05419922 C84.47583694 83.27759003 84.48170319 84.50098083 84.48774719 85.76144409 C83.90471743 89.63265959 82.76454211 91.27355378 80 94 C76.60306077 95.13231308 73.98702958 95.14081814 70.40478516 95.16113281 C69.40668068 95.16858017 69.40668068 95.16858017 68.38841248 95.17617798 C66.1886186 95.19077477 63.98889683 95.19759727 61.7890625 95.203125 C60.25833128 95.20887831 58.72760008 95.21463602 57.1968689 95.22039795 C53.98736231 95.23090074 50.77788072 95.23674819 47.56835938 95.24023438 C43.46031743 95.24571894 39.35260696 95.26974894 35.24466896 95.29820633 C32.08247926 95.31685016 28.92036914 95.32203922 25.75812912 95.32357025 C24.24389203 95.32659316 22.72965622 95.33460953 21.21547318 95.34775543 C19.09472834 95.36485381 16.97479013 95.36292704 14.85400391 95.35644531 C13.64837799 95.36009094 12.44275208 95.36373657 11.20059204 95.36749268 C7.39778603 94.93085366 4.72583416 93.72583416 2 91 C1.52875175 83.69565217 1.52875175 83.69565217 3.3125 81.0625 C6.42841025 79.10063058 9.16428195 78.86049876 12.74682617 78.79467773 C13.70759567 78.77473251 14.66836517 78.75478729 15.6582489 78.73423767 C16.69270645 78.71752518 17.727164 78.70081268 18.79296875 78.68359375 C19.85413406 78.66281265 20.91529938 78.64203156 22.00862122 78.62062073 C25.40151437 78.55518762 28.7944855 78.49626907 32.1875 78.4375 C34.48633622 78.39430886 36.78516453 78.35069438 39.08398438 78.30664062 C44.7225736 78.1995126 50.36124056 78.09773449 56 78 C55.16283951 77.17394257 54.32567902 76.34788513 53.46315002 75.49679565 C45.57725421 67.71223646 37.70457751 59.91452458 29.84466648 52.10372734 C25.80332418 48.08848375 21.75746094 44.07802551 17.70092773 40.078125 C13.7866738 36.21817811 9.88474351 32.34616198 5.9910717 28.46545792 C4.50306941 26.98669761 3.01067148 25.51234693 1.51385689 24.04250717 C-0.58124894 21.98367132 -2.66020619 19.90973959 -4.73608398 17.83154297 C-5.67044029 16.92415123 -5.67044029 16.92415123 -6.62367249 15.99842834 C-10.04988023 12.53054927 -12.00891169 10.12908791 -12 5 C-8.51610005 -0.40605164 -6.24974795 -1.80565667 0 0 Z " fill="#FFFFFF" transform="translate(380,369)"/>
<path d="M0 0 C0.70616959 -0.00540298 1.41233917 -0.01080597 2.13990784 -0.01637268 C4.46935202 -0.02885893 6.79755992 -0.01237119 9.12695312 0.00561523 C10.74833236 0.00546024 12.36971198 0.00397123 13.99108887 0.00120544 C17.38729249 -0.00017849 20.78307378 0.01237818 24.17919922 0.03515625 C28.53064007 0.06354118 32.88137923 0.06080365 37.23287201 0.04806614 C40.58036279 0.04110829 43.92769164 0.04889939 47.27516174 0.06132317 C48.87951537 0.06583666 50.48388639 0.06617535 52.08824158 0.06225777 C54.3313251 0.05934442 56.57344461 0.07585694 58.81640625 0.09765625 C60.09229614 0.10305923 61.36818604 0.10846222 62.68273926 0.11402893 C66.11909373 0.52705668 67.51559564 1.04558873 69.90820312 3.50170898 C71.04779493 6.9204844 71.05614952 9.5825322 71.08520508 13.1887207 C71.09177628 13.86387726 71.09834747 14.53903381 71.1051178 15.23464966 C71.12481394 17.46689978 71.13650404 19.69908279 71.14648438 21.93139648 C71.1505599 22.69468388 71.15463543 23.45797127 71.15883446 24.24438858 C71.17967778 28.28312152 71.19398795 32.32182064 71.20336914 36.3605957 C71.21444036 40.52926709 71.24885285 44.69740568 71.28854084 48.8658886 C71.31469491 52.07440172 71.32305978 55.28278751 71.32665062 58.49139786 C71.33151841 60.02798188 71.34313802 61.56456014 71.36168861 63.10103989 C71.38605986 65.25309201 71.38511995 67.40376009 71.37817383 69.5559082 C71.38404007 70.77929901 71.38990631 72.00268982 71.39595032 73.26315308 C70.81304833 77.13352013 69.66660109 78.77138756 66.90820312 81.50170898 C63.97070312 82.56420898 63.97070312 82.56420898 60.90820312 82.50170898 C58.16103926 80.73131449 56.37674391 79.43879055 54.90820312 76.50170898 C54.789802 74.92964256 54.73117279 73.35287629 54.70288086 71.77661133 C54.67296303 70.30531265 54.67296303 70.30531265 54.6424408 68.80429077 C54.6257283 67.74279816 54.60901581 66.68130554 54.59179688 65.58764648 C54.57101578 64.50287018 54.55023468 63.41809387 54.52882385 62.30044556 C54.46329679 58.82593278 54.40442865 55.35134275 54.34570312 51.87670898 C54.30252091 49.52513841 54.25890673 47.17357572 54.21484375 44.82202148 C54.1076122 39.04866629 54.00585169 33.27523378 53.90820312 27.50170898 C52.65032486 28.77957275 52.65032486 28.77957275 51.36703491 30.08325195 C43.46735712 38.10448932 35.55193683 46.10989019 27.62077904 54.1000061 C23.54365016 58.20846487 19.47229657 62.32232471 15.41357422 66.44897461 C11.49743828 70.43023918 7.56688225 74.3967234 3.62584305 78.35333252 C2.12386459 79.86640861 0.62718272 81.38476129 -0.86409378 82.90838623 C-2.95182516 85.03958987 -5.05750332 87.15135272 -7.16845703 89.25952148 C-8.08987488 90.21329681 -8.08987488 90.21329681 -9.02990723 91.18634033 C-11.90034882 94.01599121 -13.30264299 95.38276499 -17.37997437 95.99731445 C-20.87041263 95.35941124 -22.01299096 94.35044302 -24.09179688 91.50170898 C-25.09179688 89.12670898 -25.09179688 89.12670898 -25.09179688 86.50170898 C-22.2629189 81.64541644 -18.74453505 77.87837518 -14.76269531 73.94555664 C-14.13788269 73.32045197 -13.51307007 72.69534729 -12.86932373 72.05130005 C-10.81798152 70.00134303 -8.75966295 67.95854762 -6.70117188 65.91577148 C-5.27155624 64.48988886 -3.84238366 63.06356189 -2.41363525 61.6368103 C1.33677693 57.89401189 5.09315766 54.15726031 8.85083008 50.42175293 C12.68869459 46.60439547 16.52086049 42.78132666 20.35351562 38.95874023 C27.86619094 31.46747502 35.38518658 23.98258808 42.90820312 16.50170898 C41.98192108 16.49624054 41.98192108 16.49624054 41.03692627 16.49066162 C34.6127756 16.44886868 28.18934152 16.37954569 21.765625 16.29418945 C19.36791143 16.26595433 16.97010434 16.24475252 14.57226562 16.23071289 C11.12646516 16.20931926 7.68179218 16.16268518 4.23632812 16.11108398 C3.1632843 16.10985535 2.09024048 16.10862671 0.98468018 16.10736084 C-0.0160553 16.08764221 -1.01679077 16.06792358 -2.04785156 16.04760742 C-2.92721375 16.03872498 -3.80657593 16.02984253 -4.71258545 16.02069092 C-7.89255778 15.32703748 -9.10332636 14.03321619 -11.09179688 11.50170898 C-11.64145394 7.6541095 -11.823789 5.50998467 -9.50378418 2.3143158 C-6.22358259 -0.15075346 -4.0817076 0.00053159 0 0 Z " fill="#FFFFFF" transform="translate(393.091796875,48.498291015625)"/>
<path d="M0 0 C0.74894531 0.41378906 1.49789062 0.82757813 2.26953125 1.25390625 C11.11115611 6.63512735 16.15862874 14.0987799 19 24 C19.56888971 28.4733683 19.60542642 32.87025103 19.5625 37.375 C19.59827148 39.08816406 19.59827148 39.08816406 19.63476562 40.8359375 C19.61833851 50.4731762 17.33997315 58.28236028 11.74609375 66.18359375 C3.82560481 73.9164569 -3.79703466 78.1314773 -15 78.625 C-26.20296534 78.1314773 -33.82560481 73.9164569 -41.74609375 66.18359375 C-48.13677238 57.15689862 -49.81082843 48.38954626 -49.625 37.5 C-49.64433594 36.36691406 -49.66367188 35.23382813 -49.68359375 34.06640625 C-49.62521217 23.87298179 -46.91048697 14.07651458 -39.73046875 6.52734375 C-28.96427453 -2.97509855 -13.2747838 -7.37487989 0 0 Z M-29.5703125 17.71875 C-34.22486517 23.99574675 -34.27022888 29.50528199 -34.375 37.125 C-34.41238281 38.13304687 -34.44976562 39.14109375 -34.48828125 40.1796875 C-34.5713016 47.30098876 -33.35897165 52.2851126 -29 58 C-25.04733463 61.70333212 -20.36705544 63.29947098 -15 63.625 C-9.63294456 63.29947098 -4.95266537 61.70333212 -1 58 C3.96989945 51.41203547 4.75815024 45.52261391 4.5625 37.4375 C4.57893555 35.9534668 4.57893555 35.9534668 4.59570312 34.43945312 C4.52421021 27.25679789 3.35806647 21.40139636 -1.81640625 16.16015625 C-2.39261719 15.79792969 -2.96882813 15.43570313 -3.5625 15.0625 C-4.14128906 14.68222656 -4.72007812 14.30195313 -5.31640625 13.91015625 C-13.17274189 9.66299568 -23.53716004 11.11529954 -29.5703125 17.71875 Z " fill="#FFFFFF" transform="translate(271,172)"/>
</svg>
